<svg width="22" height="18" viewBox="0 0 22 18" fill="none" xmlns="http://www.w3.org/2000/svg">
<path d="M0.08 9C0.08 6.248 0.608 4.08 1.664 2.496C2.736 0.911999 4.456 0.119998 6.824 0.119998C9.192 0.119998 10.904 0.911999 11.96 2.496C13.032 4.08 13.568 6.248 13.568 9C13.568 11.784 13.032 13.968 11.96 15.552C10.904 17.136 9.192 17.928 6.824 17.928C4.456 17.928 2.736 17.136 1.664 15.552C0.608 13.968 0.08 11.784 0.08 9ZM9.536 9C9.536 7.384 9.36 6.144 9.008 5.28C8.656 4.4 7.928 3.96 6.824 3.96C5.72 3.96 4.992 4.4 4.64 5.28C4.288 6.144 4.112 7.384 4.112 9C4.112 10.088 4.176 10.992 4.304 11.712C4.432 12.416 4.688 12.992 5.072 13.44C5.472 13.872 6.056 14.088 6.824 14.088C7.592 14.088 8.168 13.872 8.552 13.44C8.952 12.992 9.216 12.416 9.344 11.712C9.472 10.992 9.536 10.088 9.536 9ZM15.3043 4.296V0.48H21.9523V18H17.6803V4.296H15.3043Z" fill="#F5F5F5"/>
</svg>
