<svg width="23" height="24" viewBox="0 0 23 24" fill="none" xmlns="http://www.w3.org/2000/svg">
<path d="M16.1699 8.4667C16.0701 8.20825 15.9172 7.97356 15.7212 7.77776C15.5252 7.58196 15.2904 7.42939 15.0318 7.32987C14.6758 7.19801 14.2998 7.12832 13.9202 7.12383C13.2889 7.09508 13.0996 7.08789 11.5004 7.08789C9.90112 7.08789 9.71185 7.09508 9.08055 7.12383C8.70052 7.12818 8.32407 7.19788 7.96768 7.32987C7.70922 7.42966 7.47454 7.58248 7.27874 7.77849C7.08294 7.97449 6.93037 8.20934 6.83085 8.4679C6.69899 8.82391 6.62929 9.19995 6.62481 9.57957C6.59605 10.2109 6.58887 10.4001 6.58887 11.9994C6.58887 13.5986 6.59605 13.7879 6.62481 14.4192C6.62915 14.7992 6.69885 15.1757 6.83085 15.532C6.93064 15.7905 7.08346 16.0252 7.27946 16.221C7.47547 16.4168 7.71032 16.5694 7.96887 16.6689C8.32489 16.8007 8.70092 16.8704 9.08055 16.8749C9.71185 16.9037 9.90112 16.9109 11.5004 16.9109C13.0996 16.9109 13.2889 16.9037 13.9202 16.8749C14.3002 16.8706 14.6766 16.8009 15.033 16.6689C15.2915 16.5691 15.5262 16.4163 15.722 16.2203C15.9178 16.0243 16.0703 15.7894 16.1699 15.5309C16.3017 15.1748 16.3714 14.7988 16.3759 14.4192C16.4046 13.7879 16.4118 13.5986 16.4118 11.9994C16.4118 10.4001 16.4046 10.2109 16.3759 9.57957C16.3715 9.19954 16.3019 8.8231 16.1699 8.4667ZM11.5004 15.0756C10.8919 15.0756 10.2972 14.8952 9.79127 14.5572C9.28538 14.2192 8.89109 13.7387 8.65825 13.1766C8.42542 12.6145 8.3645 11.996 8.48319 11.3992C8.60189 10.8025 8.89488 10.2543 9.3251 9.82413C9.75533 9.3939 10.3035 9.10092 10.9002 8.98222C11.4969 8.86352 12.1155 8.92444 12.6776 9.15728C13.2397 9.39011 13.7201 9.7844 14.0582 10.2903C14.3962 10.7962 14.5766 11.3909 14.5766 11.9994C14.5766 12.8153 14.2525 13.5977 13.6756 14.1746C13.0987 14.7515 12.3162 15.0756 11.5004 15.0756ZM14.6976 9.52087C14.5555 9.52087 14.4165 9.47872 14.2983 9.39974C14.1801 9.32076 14.088 9.20851 14.0336 9.07717C13.9792 8.94584 13.9649 8.80132 13.9927 8.6619C14.0204 8.52247 14.0889 8.3944 14.1894 8.29388C14.2899 8.19336 14.418 8.12491 14.5574 8.09718C14.6968 8.06944 14.8413 8.08368 14.9727 8.13808C15.104 8.19248 15.2163 8.2846 15.2952 8.4028C15.3742 8.521 15.4164 8.65996 15.4164 8.80212C15.4164 8.99274 15.3406 9.17556 15.2058 9.31035C15.0711 9.44515 14.8882 9.52087 14.6976 9.52087Z" fill="white"/>
<path d="M11.4999 13.9968C12.6027 13.9968 13.4968 13.1027 13.4968 11.9999C13.4968 10.897 12.6027 10.0029 11.4999 10.0029C10.397 10.0029 9.50293 10.897 9.50293 11.9999C9.50293 13.1027 10.397 13.9968 11.4999 13.9968Z" fill="white"/>
<path d="M11.5001 0.5C9.22557 0.5 7.00215 1.17447 5.11097 2.43811C3.2198 3.70175 1.74581 5.49782 0.875395 7.59918C0.00498277 9.70054 -0.222757 12.0128 0.220976 14.2436C0.664708 16.4744 1.75998 18.5235 3.36829 20.1318C4.97661 21.7401 7.02572 22.8354 9.25651 23.2791C11.4873 23.7229 13.7996 23.4951 15.9009 22.6247C18.0023 21.7543 19.7984 20.2803 21.062 18.3892C22.3257 16.498 23.0001 14.2746 23.0001 12.0001C23.0001 8.95005 21.7885 6.02497 19.6318 3.86829C17.4752 1.71161 14.5501 0.5 11.5001 0.5ZM17.4537 14.4702C17.4435 14.9668 17.3491 15.4581 17.1746 15.9233C17.0208 16.3211 16.7855 16.6823 16.4839 16.9839C16.1823 17.2855 15.8211 17.5208 15.4233 17.6746C14.9581 17.8491 14.4668 17.9435 13.9702 17.9537C13.3305 17.9825 13.1268 17.9897 11.5001 17.9897C9.87329 17.9897 9.66964 17.9825 9.02995 17.9537C8.5333 17.9435 8.04198 17.8491 7.57687 17.6746C7.17906 17.5208 6.81779 17.2855 6.51619 16.9839C6.2146 16.6823 5.97935 16.3211 5.8255 15.9233C5.65104 15.4581 5.55666 14.9668 5.54639 14.4702C5.51764 13.8305 5.51045 13.6268 5.51045 12.0001C5.51045 10.3733 5.51764 10.1696 5.54639 9.52994C5.55666 9.03329 5.65104 8.54197 5.8255 8.07686C5.97935 7.67906 6.2146 7.31778 6.51619 7.01619C6.81779 6.7146 7.17906 6.47934 7.57687 6.3255C8.04198 6.15103 8.5333 6.05666 9.02995 6.04638C9.66964 6.01763 9.87329 6.01045 11.5001 6.01045C13.1268 6.01045 13.3305 6.01763 13.9702 6.04638C14.4668 6.05666 14.9581 6.15103 15.4233 6.3255C15.8211 6.47934 16.1823 6.7146 16.4839 7.01619C16.7855 7.31778 17.0208 7.67906 17.1746 8.07686C17.3491 8.54197 17.4435 9.03329 17.4537 9.52994C17.4825 10.1696 17.4897 10.3733 17.4897 12.0001C17.4897 13.6268 17.4825 13.8305 17.4537 14.4702Z" fill="white"/>
</svg>
