<svg width="24" height="25" viewBox="0 0 24 25" fill="none" xmlns="http://www.w3.org/2000/svg">
<rect y="0.5" width="24" height="24" rx="12" fill="white"/>
<path d="M17.3741 15.2399L14.312 13.8677L14.3035 13.8638C14.1446 13.7958 13.9711 13.7685 13.799 13.7844C13.6268 13.8003 13.4613 13.8589 13.3175 13.9548C13.3005 13.966 13.2842 13.9781 13.2687 13.9912L11.6866 15.34C10.6843 14.8531 9.64949 13.8261 9.16264 12.8368L10.5133 11.2306C10.5263 11.2144 10.5387 11.1981 10.5504 11.1806C10.6443 11.0371 10.7012 10.8727 10.7162 10.7019C10.7312 10.5311 10.7037 10.3593 10.6362 10.2017V10.1939L9.26014 7.12647C9.17092 6.92059 9.01751 6.74909 8.8228 6.63756C8.6281 6.52604 8.40255 6.48047 8.17983 6.50767C7.29905 6.62357 6.49058 7.05612 5.90542 7.72454C5.32025 8.39296 4.99841 9.25153 5.00001 10.1399C5.00001 15.301 9.19904 19.5 14.3601 19.5C15.2484 19.5016 16.107 19.1797 16.7754 18.5946C17.4438 18.0094 17.8764 17.2009 17.9923 16.3202C18.0195 16.0975 17.9741 15.872 17.8627 15.6773C17.7513 15.4826 17.5799 15.3292 17.3741 15.2399ZM14.3601 18.46C12.1542 18.4576 10.0394 17.5802 8.47956 16.0204C6.91977 14.4606 6.04242 12.3458 6.04001 10.1399C6.03757 9.50517 6.26625 8.89124 6.68335 8.41278C7.10045 7.93431 7.67744 7.62403 8.30658 7.53988C8.30632 7.54247 8.30632 7.54509 8.30658 7.54768L9.67159 10.6027L8.32803 12.2108C8.31436 12.2265 8.30198 12.2432 8.29098 12.2609C8.19316 12.411 8.13578 12.5838 8.12439 12.7626C8.113 12.9414 8.148 13.1201 8.22598 13.2814C8.81488 14.4858 10.0284 15.6903 11.2459 16.2786C11.4084 16.3558 11.5881 16.3896 11.7676 16.3766C11.947 16.3636 12.12 16.3043 12.2697 16.2045C12.2864 16.1933 12.3024 16.1811 12.3178 16.1681L13.8979 14.8199L16.9529 16.1882H16.9601C16.877 16.8182 16.5671 17.3964 16.0886 17.8145C15.61 18.2327 14.9956 18.4621 14.3601 18.46Z" fill="#002037"/>
</svg>
