<svg width="30" height="30" viewBox="0 0 30 30" fill="none" xmlns="http://www.w3.org/2000/svg">
<g clip-path="url(#clip0_2626_224)">
<path d="M12.3655 20C12.0353 19.9768 11.7281 19.8355 11.5098 19.6065L6.37532 14.8841C6.26092 14.6638 6.2236 14.4163 6.26849 14.1757C6.31337 13.9351 6.43827 13.7131 6.62596 13.5405C6.81366 13.3679 7.05493 13.253 7.31656 13.2117C7.57818 13.1704 7.84728 13.2048 8.08681 13.31L12.3142 17.1981L26.9132 3.86526C27.1527 3.76005 27.4218 3.72572 27.6834 3.767C27.9451 3.80829 28.1863 3.92316 28.374 4.09579C28.5617 4.26842 28.6866 4.49033 28.7315 4.73095C28.7764 4.97157 28.7391 5.21908 28.6247 5.43938L13.2213 19.6065C13.0029 19.8355 12.6958 19.9768 12.3655 20Z" fill="#1884C7"/>
<path d="M14.9506 30C12.275 29.9957 9.64959 29.273 7.34739 27.9071C5.0452 26.5412 3.15042 24.582 1.86024 22.2334C0.880862 20.4828 0.274826 18.5476 0.0804872 16.5501C-0.223932 13.6203 0.339316 10.6655 1.69997 8.05432C3.06062 5.44315 5.15845 3.29121 7.73175 1.86694C9.47885 0.885599 11.4102 0.278349 13.4037 0.0836213C15.3899 -0.128606 17.3985 0.0641508 19.3084 0.650283C19.4789 0.684401 19.6403 0.753823 19.7824 0.854097C19.9245 0.954372 20.0441 1.08329 20.1335 1.23258C20.223 1.38187 20.2803 1.54825 20.3019 1.72104C20.3234 1.89383 20.3087 2.06923 20.2587 2.23599C20.2086 2.40275 20.1244 2.5572 20.0113 2.68942C19.8982 2.82165 19.7588 2.92874 19.602 3.00384C19.4452 3.07893 19.2744 3.12037 19.1007 3.12549C18.927 3.13061 18.7542 3.09931 18.5932 3.03359C16.9776 2.54591 15.281 2.38724 13.6033 2.56693C11.9447 2.73572 10.3375 3.24036 8.87944 4.05025C7.47416 4.82708 6.23168 5.86833 5.22014 7.11689C4.17867 8.38881 3.40096 9.85617 2.93256 11.433C2.46416 13.0099 2.31448 14.6646 2.4923 16.3001C2.66075 17.9621 3.16438 19.5724 3.97265 21.0334C4.74793 22.4415 5.78709 23.6865 7.03316 24.7001C8.30253 25.7436 9.76696 26.5229 11.3407 26.9922C12.9144 27.4616 14.5658 27.6115 16.198 27.4334C17.8567 27.2646 19.4638 26.7599 20.9219 25.95C22.3271 25.1732 23.5696 24.132 24.5812 22.8834C25.6226 21.6115 26.4003 20.1441 26.8687 18.5672C27.3371 16.9904 27.4868 15.3357 27.309 13.7002C27.2759 13.3532 27.3818 13.0072 27.6032 12.7384C27.8247 12.4696 28.1437 12.3 28.49 12.2668C28.8363 12.2337 29.1815 12.3397 29.4498 12.5616C29.718 12.7836 29.8873 13.1032 29.9204 13.4502C30.2233 16.3817 29.6576 19.3378 28.2938 21.9491C26.9301 24.5605 24.8289 26.7114 22.2525 28.1334C20.4868 29.1549 18.5256 29.791 16.4974 30H14.9506Z" fill="#1884C7"/>
</g>
<defs>
<clipPath id="clip0_2626_224">
<rect width="30" height="30" fill="white"/>
</clipPath>
</defs>
</svg>
