<svg width="100" height="100" viewBox="0 0 100 100" fill="none" xmlns="http://www.w3.org/2000/svg">
<path fill-rule="evenodd" clip-rule="evenodd" d="M49.1742 8.21636C48.9887 8.32456 48.3516 9.36128 47.7588 10.5203L46.6809 12.6275L44.776 12.8677C41.7068 13.2544 41.2109 13.5187 41.2109 14.7666C41.2109 15.1849 41.592 15.6654 42.9641 16.9767L44.7172 18.6523L44.283 21.1599L43.8488 23.6675L44.3963 24.1384C44.6973 24.3974 45.1293 24.6093 45.3561 24.6093C45.5828 24.6093 46.7275 24.1187 47.8998 23.5191L50.0312 22.4289L51.9756 23.5191C54.2086 24.7714 54.9428 24.8888 55.6736 24.1109L56.142 23.6125L55.7133 21.1324L55.2848 18.6523L57.0369 16.9841C58.4213 15.6664 58.7891 15.2023 58.7891 14.7742C58.7891 13.5115 58.2807 13.2361 55.2793 12.8722L53.323 12.6351L52.2344 10.507C51.4422 8.95816 51.0129 8.32827 50.6578 8.19331C50.0422 7.95913 49.6037 7.96597 49.1742 8.21636ZM49.3164 14.0117C48.7691 15.0576 48.6725 15.1417 47.8516 15.2869C45.8689 15.6373 45.9445 15.5226 46.9725 16.6216L47.8889 17.6013L47.7514 18.9709L47.6139 20.3406L48.6051 19.8382C49.8475 19.2085 50.3477 19.2085 51.5893 19.8376L52.5795 20.3394L52.4297 19.3005C52.1992 17.7 52.284 17.3607 53.1307 16.498C53.9734 15.6394 53.9646 15.4296 53.0861 15.4296C52.0475 15.4296 51.3008 14.9507 50.6914 13.8935C50.3734 13.3419 50.0658 12.8908 50.0078 12.8912C49.9498 12.8914 49.6387 13.3957 49.3164 14.0117ZM29.2508 16.748C29.0846 16.9361 28.5051 17.9787 27.9627 19.065C26.8514 21.2906 27.1559 21.1089 24.0439 21.4037C22.8697 21.5148 22.4908 21.6376 22.0176 22.0605C21.027 22.9457 21.1893 23.4263 23.143 25.389L24.8504 27.1044L24.5344 28.9587C24.3605 29.9787 24.1666 31.071 24.1035 31.3867C23.9533 32.1378 24.7943 33.2031 25.5377 33.2031C25.8143 33.2031 26.951 32.7212 28.0639 32.1322L30.0871 31.0613L32.2801 32.1529C34.415 33.2156 34.4949 33.2384 35.3115 33.0185C36.5754 32.6783 36.658 32.3292 36.152 29.466L35.7289 27.0718L37.3957 25.3972C38.8584 23.9277 39.0625 23.638 39.0625 23.0314C39.0625 21.8209 38.7736 21.6394 36.4031 21.3617C35.234 21.2246 34.1244 21.1082 33.9373 21.1031C33.7049 21.0966 33.2809 20.4599 32.5977 19.0918C31.3562 16.6052 31.184 16.4062 30.2734 16.4062C29.8322 16.4062 29.4355 16.5388 29.2508 16.748ZM69.1816 16.5382C69.043 16.5937 68.4397 17.6195 67.841 18.8177C67.2422 20.0158 66.7377 21.0132 66.7199 21.0343C66.7023 21.0554 65.6795 21.1814 64.4475 21.3144C62.4307 21.5322 62.1535 21.6097 61.6699 22.0912C60.7562 23.0011 60.9176 23.463 62.8318 25.4195L64.5311 27.1558L64.1949 29.1541C64.0102 30.2531 63.8607 31.398 63.8631 31.6982C63.868 32.3439 64.6479 33.2031 65.2287 33.2031C65.4502 33.2031 66.592 32.7214 67.7658 32.1326L69.9002 31.0623L72.0234 32.1744C74.1244 33.2748 74.1555 33.2839 74.973 33.039C76.2307 32.6621 76.3266 32.2748 75.8518 29.4896L75.4564 27.1709L76.9094 25.7437C78.6932 23.9914 79.0301 23.3304 78.6287 22.3703C78.3045 21.5943 78.2484 21.5753 75.3918 21.2775C74.2646 21.1599 73.3299 21.0484 73.3147 21.0298C73.2994 21.0113 72.7982 20.0185 72.2012 18.824C71.6041 17.6292 70.9717 16.5964 70.7957 16.5291C70.4246 16.3865 69.5469 16.3916 69.1816 16.5382ZM29.5221 22.4017C28.8838 23.6664 28.6465 23.8203 26.8781 24.1183L26.1195 24.2462L26.8176 24.9648C27.7203 25.8939 27.9402 26.514 27.7967 27.7255C27.7324 28.2675 27.7391 28.7109 27.8113 28.7109C27.8836 28.7109 28.3764 28.4912 28.9062 28.2226C30.0986 27.6183 30.3096 27.6185 31.6111 28.2246C32.1857 28.4919 32.6793 28.7109 32.708 28.7109C32.7367 28.7109 32.6877 28.3375 32.5994 27.8808C32.2951 26.3072 32.3666 26.0189 33.3129 25.0072L34.2041 24.0544L33.0748 23.9134C31.8271 23.7576 31.2875 23.3435 30.5416 21.9697L30.1264 21.2048L29.5221 22.4017ZM69.3207 22.298C68.8186 23.3701 68.0166 24.0195 67.1875 24.0253C66.9189 24.0271 66.4949 24.0834 66.2451 24.1503C65.8043 24.2683 65.8156 24.2968 66.6357 25.1335C67.4728 25.9875 67.4803 26.0074 67.4654 27.3531C67.4572 28.1 67.4822 28.7109 67.5209 28.7109C67.5596 28.7109 68.0248 28.4912 68.5547 28.2226C69.0846 27.9541 69.6998 27.7343 69.9219 27.7343C70.1439 27.7343 70.7592 27.9541 71.2891 28.2226C72.4346 28.8031 72.5164 28.814 72.3906 28.3691C72.3373 28.181 72.2355 27.5679 72.1645 27.0066L72.035 25.9859L72.9314 25.1699C73.4246 24.721 73.8281 24.2849 73.8281 24.2005C73.8281 24.1164 73.4107 23.9927 72.9004 23.9259C71.4678 23.7384 71.1514 23.5337 70.4945 22.3699C70.1592 21.7753 69.8641 21.289 69.8389 21.289C69.8139 21.289 69.5807 21.7431 69.3207 22.298ZM9.28145 28.2009C9.0248 28.4574 8.41348 29.4666 7.92285 30.4433C7.26816 31.747 6.91426 32.2443 6.5916 32.3138C6.35 32.366 5.28359 32.5404 4.22187 32.7015C2.00664 33.0378 1.5625 33.3138 1.5625 34.3544C1.5625 34.9804 1.74629 35.2306 3.29707 36.7168L5.03145 38.3789L4.67832 40.2343C4.16953 42.9082 4.18887 43.4414 4.81152 43.931C5.09453 44.1537 5.49453 44.3359 5.70039 44.3359C5.90625 44.3359 6.97031 43.8964 8.06523 43.3593C9.16016 42.8222 10.168 42.3828 10.3049 42.3828C10.442 42.3828 11.4297 42.8222 12.5 43.3593C13.5703 43.8964 14.6713 44.3359 14.9467 44.3359C15.4748 44.3359 16.4062 43.5582 16.4062 43.1171C16.4062 42.9742 16.2227 41.8519 15.9982 40.6232L15.5902 38.3894L17.4631 36.6228C18.4932 35.6513 19.3359 34.7084 19.3359 34.5273C19.3359 33.8943 18.8869 33.2209 18.3369 33.0292C18.032 32.9228 16.9078 32.7298 15.8391 32.6003C14.7701 32.4709 13.8123 32.3117 13.7105 32.2468C13.6088 32.182 13.1172 31.314 12.6182 30.3183C12.1191 29.3224 11.5369 28.3337 11.3242 28.121C10.7904 27.5873 9.8584 27.6238 9.28145 28.2009ZM88.6758 28.121C88.4631 28.3337 87.8809 29.3224 87.3818 30.3183C86.8828 31.314 86.3943 32.18 86.2963 32.2425C86.1984 32.305 85.2646 32.4638 84.2213 32.5953C83.1779 32.7267 82.0516 32.9199 81.7182 33.0244C81.0369 33.238 80.5889 34.0029 80.7709 34.6416C80.8363 34.8709 81.6828 35.8056 82.652 36.7187L84.4143 38.3789L84.0041 40.6181C83.7783 41.8496 83.5938 42.9742 83.5938 43.1171C83.5938 43.5582 84.5252 44.3359 85.0533 44.3359C85.3287 44.3359 86.4297 43.8964 87.5 43.3593C88.5703 42.8222 89.5811 42.3828 89.7461 42.3828C89.9111 42.3828 90.9219 42.8222 91.9922 43.3593C93.0625 43.8964 94.1441 44.3359 94.3961 44.3359C95.0199 44.3359 95.7039 43.5609 95.7 42.8585C95.6981 42.5431 95.5334 41.3837 95.3336 40.2822L94.9705 38.2791L96.7041 36.6964C98.2936 35.2455 98.4375 35.0533 98.4375 34.3841C98.4375 33.3027 98.0008 33.0257 95.7699 32.6923C94.7127 32.5341 93.65 32.363 93.4084 32.3121C93.085 32.2437 92.7334 31.75 92.0771 30.4433C91.5865 29.4666 90.9752 28.4574 90.7186 28.2009C90.1416 27.6238 89.2096 27.5873 88.6758 28.121ZM9.95527 33.606C9.38984 34.813 9.02578 35.0751 7.66602 35.2537C7.10195 35.3277 6.64062 35.4505 6.64062 35.5269C6.64062 35.6031 6.95684 35.9683 7.34316 36.3386C8.27891 37.2351 8.42793 37.6818 8.19727 38.8984C8.09199 39.4531 8.04219 39.9431 8.08633 39.9873C8.13047 40.0316 8.6707 39.8293 9.28672 39.5378L10.4066 39.0082L11.4576 39.5236C12.0357 39.807 12.5455 40.039 12.5906 40.039C12.6357 40.039 12.6207 39.421 12.5574 38.666L12.4424 37.2929L13.35 36.4232C13.8494 35.9449 14.2578 35.5162 14.2578 35.4708C14.2578 35.4253 13.7965 35.3259 13.2324 35.2498C11.8186 35.0587 11.601 34.9066 10.9764 33.6714L10.4303 32.5916L9.95527 33.606ZM89.251 33.8037C88.7014 34.9769 88.5559 35.0689 86.9629 35.2507C86.2916 35.3273 85.7422 35.433 85.7422 35.4855C85.7422 35.538 86.1516 35.9517 86.652 36.4046C87.6223 37.2832 87.691 37.5492 87.3975 39.2871C87.3275 39.7005 87.3256 40.039 87.393 40.039C87.4604 40.039 87.8773 39.8544 88.3195 39.6289C88.7617 39.4033 89.4037 39.2187 89.7461 39.2187C90.0885 39.2187 90.7305 39.4033 91.1727 39.6289C91.6148 39.8544 92.0293 40.039 92.0939 40.039C92.1584 40.039 92.1514 39.4314 92.0781 38.6886L91.9451 37.3382L92.8555 36.365L93.7658 35.3917L92.5875 35.255C91.3111 35.1068 90.7654 34.6802 90.2451 33.4244C90.1057 33.0878 89.9295 32.8125 89.8535 32.8125C89.7773 32.8125 89.5062 33.2585 89.251 33.8037ZM45.0195 36.9462C32.0342 38.4121 19.9699 45.8638 12.9775 56.7382C8.89375 63.089 6.61973 70.0724 6.0416 78.039C5.79824 81.391 5.89941 82.0041 6.76074 82.3964C7.08555 82.5445 9.13535 82.6171 12.9865 82.6171C20.2393 82.6171 19.7049 82.8892 19.9381 79.0789C20.2674 73.697 21.7963 69.0005 24.6543 64.5904C26.357 61.9632 30.1666 58.0558 32.7148 56.323C41.3955 50.4199 52.0086 49.4353 61.6107 53.6423C64.6521 54.9749 68.6707 57.9011 71.3063 60.7025C76.2658 65.9742 78.7598 71.6443 79.2992 78.8755C79.4998 81.5652 79.543 81.7652 80.0105 82.1853L80.5084 82.6326L86.7561 82.5759L93.0037 82.5195L93.3768 82.0584C94.415 80.7755 93.2971 72.0113 91.3895 66.4791C89.0672 59.7441 85.8398 54.5636 80.8725 49.5966C78.2355 46.9601 74.5139 44.0548 71.7928 42.5089C66.6506 39.5876 60.3805 37.5685 54.451 36.9248C52.227 36.6832 47.249 36.6945 45.0195 36.9462ZM46.875 39.7808C41.8361 40.1697 36.3111 41.7046 31.7588 43.9808C27.6506 46.0351 24.9062 47.9697 21.7203 51.0578L19.7102 53.0062L22.5916 55.8925L25.4732 58.7789L27.141 57.155C32.2701 52.1605 38.8324 49.0945 46.1994 48.2505C47.1617 48.1402 48.0607 48.0494 48.1973 48.0484C48.3916 48.0472 48.4338 47.1488 48.3926 43.899C48.3479 40.3757 48.2957 39.7482 48.0469 39.7322C47.8857 39.7216 47.3584 39.7435 46.875 39.7808ZM51.3672 43.8334V48.0291L52.002 48.1275C52.3512 48.1814 53.1641 48.2789 53.8086 48.3439C60.1988 48.9886 67.6363 52.6535 72.5883 57.5974L73.9854 58.9921L76.8852 55.9507C78.4803 54.2781 79.8109 52.8367 79.8426 52.7474C79.9869 52.3396 74.8244 48.0779 71.3596 45.7443C66.5506 42.5054 59.9467 40.3865 52.6855 39.7527L51.3672 39.6375V43.8334ZM49.2814 54.1267C48.6359 54.4564 48.3354 55.3367 48.6275 56.0419C48.9229 56.755 49.6617 57.0312 51.273 57.0312C52.9438 57.0312 55.6221 57.5242 57.6598 58.207C65.9504 60.9845 72.2266 68.2628 73.7211 76.833C73.8873 77.7867 74.0234 79.1134 74.0234 79.7816C74.0234 80.4498 74.117 81.2648 74.2314 81.5929C74.7129 82.974 76.7891 82.8111 77.0594 81.3708C77.2236 80.4945 76.842 76.8998 76.3727 74.9023C73.6092 63.1457 63.6494 54.796 51.4648 54.0212C50.3406 53.9498 49.5537 53.9878 49.2814 54.1267ZM78.9535 58.058C77.3162 59.698 75.9766 61.1086 75.9766 61.1927C75.9766 61.2769 76.4016 61.9789 76.9209 62.7529C80.04 67.4007 81.7498 72.2798 82.3244 78.1738L82.4529 79.4921H86.6484H90.8439L90.7234 78.0761C90.0531 70.2011 87.8865 63.7908 83.8746 57.8125C83.1896 56.7919 82.4721 55.7587 82.2799 55.5168L81.9307 55.0763L78.9535 58.058ZM16.6432 56.7871C12.3447 62.6171 9.53535 70.3154 9.05215 77.5878L8.92559 79.4921H12.9359H16.9463L17.0832 77.9785C17.2848 75.7505 17.9066 72.6869 18.5719 70.6447C19.3418 68.281 21.0309 64.7871 22.3945 62.7375L23.4895 61.0919L20.6828 58.2804C19.1391 56.7339 17.8174 55.4687 17.7457 55.4687C17.6738 55.4687 17.1777 56.0621 16.6432 56.7871ZM50.291 70.6183C45.2434 74.4388 40.8922 77.7753 40.6217 78.033C39.7281 78.8843 38.8701 80.55 38.5539 82.0464C37.7748 85.7359 39.6859 89.657 43.0818 91.3351C44.3787 91.9761 44.7316 92.0609 46.4355 92.1408C48.0363 92.2158 48.5404 92.1621 49.5988 91.8031C51.8152 91.0515 53.6537 89.5494 54.5734 87.7384C55.048 86.8041 61.5234 65.6222 61.5234 65.0044C61.5234 64.3689 60.7168 63.6718 59.9814 63.6718C59.6098 63.6718 56.9455 65.5818 50.291 70.6183ZM50.293 74.3505C46.5332 77.1916 43.2189 79.7433 42.9277 80.0212C41.5293 81.3568 41.1063 83.9152 41.966 85.8398C43.1752 88.5472 45.9496 89.831 48.7129 88.9619C50.4166 88.4259 52.3438 86.4611 52.3438 85.2601C52.3438 85.0939 53.4443 81.4302 54.7896 77.1187C56.1348 72.8072 57.2113 69.2584 57.1822 69.2324C57.1529 69.2066 54.0527 71.5097 50.293 74.3505ZM45.8973 79.0779C44.4186 79.5605 43.6027 80.2785 42.9852 81.6406C41.727 84.4158 43.8861 87.6931 46.9727 87.6931C49.4973 87.6931 51.677 85.2187 51.2891 82.7929C51.0461 81.2736 50.2377 80.1168 48.9613 79.4623C48.1137 79.0277 46.6234 78.8408 45.8973 79.0779ZM46.0561 82.373C45.3469 83.1988 45.5348 84.1769 46.4777 84.5675C47.8066 85.1179 48.8785 83.4658 47.9014 82.373C47.7313 82.1828 47.3193 82.0312 46.9727 82.0312C46.6213 82.0312 46.2217 82.1802 46.0561 82.373Z" fill="#1884C7"/>
</svg>
