<svg width="100" height="100" viewBox="0 0 100 100" fill="none" xmlns="http://www.w3.org/2000/svg">
<path fill-rule="evenodd" clip-rule="evenodd" d="M48.6118 11.8057V13.8891C48.6118 14.6561 49.2336 15.2779 50.0006 15.2779C50.7677 15.2779 51.3895 14.6561 51.3895 13.8891V11.8057V9.72239C51.3895 8.95532 50.7677 8.3335 50.0006 8.3335C49.2336 8.3335 48.6118 8.95532 48.6118 9.72239V11.8057ZM27.7284 13.8516C27.2786 14.3085 26.9104 14.7587 26.9104 14.8519C26.9104 15.0788 32.1602 20.3127 32.3876 20.3127C32.6133 20.3127 34.202 18.7094 34.202 18.4818C34.202 18.2549 28.9522 13.021 28.7248 13.021C28.6267 13.021 28.1784 13.3948 27.7284 13.8516ZM68.356 15.7594L66.5342 17.5839C66.031 18.0878 66.0339 18.9048 66.5406 19.4052C67.046 19.9043 67.5361 20.3127 67.6298 20.3127C67.7234 20.3127 69.0081 19.1026 70.4849 17.6236L72.2196 15.8862C72.7454 15.3595 72.7477 14.5073 72.2248 13.9778C71.7052 13.4516 71.2373 13.021 71.185 13.021C71.1329 13.021 69.8598 14.2533 68.356 15.7594ZM45.9685 18.3217C35.7408 19.7163 26.8387 26.2174 22.3918 35.5399C19.0112 42.6267 18.5366 51.068 21.0996 58.5191C23.6277 65.8693 28.7527 71.889 35.6489 75.609C38.7522 77.283 38.8895 77.6255 38.8895 83.6897C38.8895 88.7807 38.9687 89.2052 40.1423 90.4021C41.3866 91.6712 41.3496 91.6668 50.7041 91.6668C59.9482 91.6668 59.9451 91.6672 61.1753 90.4875C62.3833 89.3293 62.4038 89.2213 62.5006 83.5071C62.6123 76.9243 62.4491 77.2779 66.6192 74.5793L68.0814 73.6332C68.3628 73.4511 68.7342 73.4969 68.963 73.7418C70.0213 74.8752 71.8937 75.4184 73.368 75.0198C74.3822 74.7457 75.4201 73.9324 75.9873 72.9675C76.4076 72.2526 76.4758 71.9524 76.4729 70.8335C76.4691 69.3889 76.2474 68.8231 75.2546 67.7243C74.9046 67.3368 74.8606 66.7617 75.1475 66.3255L75.6196 65.608C81.4934 56.6798 82.1723 44.6436 77.3439 35.0382C71.4392 23.2917 58.8217 16.5693 45.9685 18.3217ZM46.9928 21.0168C36.7647 22.2055 27.977 28.8936 24.2234 38.3463C21.3069 45.6903 21.6569 53.9092 25.1887 61.0245C26.5564 63.7795 28.1578 65.997 30.3892 68.2253C32.46 70.2934 34.225 71.6128 36.9345 73.1191C37.9621 73.6903 39.0024 74.3472 39.2463 74.5788C39.531 74.8493 39.9087 75.0002 40.3014 75.0002H50.542H60.6622C61.1297 75.0002 61.5769 74.8093 61.9003 74.4717C62.1786 74.1812 63.1533 73.4845 64.0659 72.9236C64.9786 72.3628 65.9003 71.7608 66.1142 71.5858C66.3222 71.4155 66.3373 71.1028 66.1467 70.9133L62.8092 67.5956L60.1422 64.9448C59.5272 64.3335 58.5929 64.1781 57.8131 64.5575C57.0123 64.9472 56.493 65.7483 56.4642 66.6385L56.4243 67.8713L56.3548 70.0171C56.3446 70.3325 56.1239 70.6017 55.8166 70.6736C54.7027 70.9342 49.2869 71.404 49.1538 71.2514C49.0779 71.1647 48.7206 70.0002 48.3597 68.6634C47.9986 67.3265 47.6774 66.2045 47.646 66.1698C47.5816 66.0989 45.5059 65.6406 45.2064 65.6312C45.1 65.6279 44.2531 66.5913 43.3246 67.772C42.3523 69.0085 40.6252 69.3543 39.2518 68.5875L38.5269 68.1828C36.8166 67.2279 35.4173 66.3571 35.4173 66.2477C35.4173 66.1382 35.8079 65.0378 36.2854 63.8022C36.7628 62.5667 37.1534 61.4333 37.1534 61.2837C37.1534 61.1338 36.7673 60.6312 36.2954 60.1665C35.7648 59.6437 34.9952 59.4446 34.2776 59.6445L32.8015 60.0557C31.3519 60.4597 30.1104 60.7257 30.0428 60.6469C29.9755 60.568 29.273 59.0993 28.4819 57.383C27.2081 54.6191 27.0763 54.2418 27.3303 54.0844C27.488 53.9864 28.5572 53.2981 29.7066 52.5545C31.6545 51.2944 31.7902 51.1708 31.7083 50.7316C31.6599 50.4726 31.5725 49.8972 31.5142 49.4529C31.4491 48.9571 31.112 48.5393 30.6412 48.3708L28.8135 47.7168C27.3866 47.2062 26.2184 46.6958 26.2175 46.5828C26.2158 46.3484 27.3939 40.5342 27.543 40.0406C27.6355 39.7349 27.7998 39.7236 30.4442 39.8403L31.9634 39.9073C32.7481 39.9419 33.4831 39.523 33.8533 38.8302C34.2256 38.1333 34.1803 37.2872 33.7355 36.6341L32.9092 35.4206L31.7588 33.7313C31.5279 33.3922 31.5745 32.9362 31.8692 32.6509C34.0479 30.5406 36.6974 28.3081 36.8691 28.4378C36.9777 28.5201 37.8869 29.2387 38.8895 30.0349C39.8921 30.8311 40.7989 31.5476 40.9045 31.6272C41.226 31.8696 43.3408 30.8127 43.4654 30.3472C43.5243 30.1276 43.5734 28.9175 43.5746 27.658C43.576 26.3984 43.6463 25.325 43.731 25.2727C43.9526 25.1358 50.1291 24.4481 50.5599 24.5123C50.8677 24.5581 51.0213 24.9361 51.605 27.0835C51.9816 28.468 52.3171 29.6292 52.351 29.6639C52.4208 29.7352 54.4986 30.193 54.7956 30.2024C54.9024 30.2057 55.748 29.2396 56.6748 28.0554C57.6441 26.8168 59.3721 26.471 60.7434 27.241L60.9944 27.3819C64.6453 29.4321 64.5842 29.3944 64.5822 29.595C64.5812 29.6937 64.1555 30.8682 63.6364 32.205L63.1745 33.3941C62.8813 34.1491 63.0599 35.006 63.6305 35.5809C64.2095 36.1643 65.0594 36.3877 65.8505 36.1645L67.1961 35.7847C68.6413 35.3767 69.8585 35.0779 69.9012 35.1206C70.0385 35.258 72.9338 41.5349 72.8812 41.5812C72.8532 41.6059 71.7942 42.2984 70.5277 43.12L68.8511 44.2078C68.4687 44.4559 68.2632 44.902 68.3232 45.354C68.5901 47.3623 68.2854 47.0689 71.1847 48.109C72.6151 48.622 73.7854 49.1229 73.7854 49.222C73.7854 49.3788 72.7329 54.5852 72.475 55.704C72.4203 55.9409 72.2044 56.1051 71.9615 56.0945L69.5675 55.9901L67.891 55.917C67.1929 55.8866 66.5364 56.2489 66.1899 56.8557C65.8795 57.3993 65.6256 57.8962 65.6256 57.9601C65.6256 58.2417 72.5477 64.9651 72.7248 64.8555C73.069 64.6429 74.7723 61.5918 75.4935 59.896C76.3244 57.9422 76.9619 55.8066 77.3727 53.6002C77.7812 51.4062 77.7888 46.1897 77.3868 44.0106C75.8215 35.5272 70.9031 28.5915 63.4324 24.333C58.7593 21.6693 52.406 20.3877 46.9928 21.0168ZM13.8494 25.0281C13.3941 25.6123 13.4931 26.4541 14.0715 26.9167L16.5069 28.8644C18.4204 30.3948 20.0451 31.5771 20.1171 31.4918C21.0111 30.4366 21.7329 29.4875 21.6807 29.4361C21.3715 29.1337 14.8239 23.9609 14.7576 23.9667C14.7099 23.9708 14.3012 24.4484 13.8494 25.0281ZM81.7427 26.6875L78.7523 29.0763C78.5149 29.2659 78.4678 29.6083 78.6451 29.855C78.8192 30.0972 79.2227 30.5868 79.542 30.943C79.8672 31.3061 80.4197 31.351 80.7994 31.0453L83.1604 29.1439C84.8314 27.7981 86.381 26.5526 86.6041 26.376C86.8273 26.1995 86.8632 25.8746 86.6839 25.6536L86.1944 25.0502C85.7458 24.4976 85.3289 24.0262 85.2678 24.0028C85.2069 23.9795 83.6204 25.1875 81.7427 26.6875ZM47.3097 27.5882C46.8073 27.6478 46.4197 28.0587 46.3895 28.5637L46.3328 29.5141C46.2727 30.5167 46.2142 31.6168 46.2026 31.9588C46.1817 32.5667 46.1486 32.5951 44.7489 33.2054C43.9612 33.5488 42.7217 34.1019 41.9944 34.4347C41.1838 34.8055 40.2334 34.6873 39.5384 34.1293L38.7187 33.4712L37.7029 32.6555C37.1694 32.2272 36.399 32.2692 35.9152 32.7529C35.4216 33.2466 35.3478 34.021 35.7392 34.599L36.3828 35.5495C37.1076 36.62 37.6751 37.5977 37.6441 37.7222C37.613 37.8467 36.9625 39.0564 36.1986 40.4106L36.0216 40.7242C35.2781 42.0421 33.8573 42.8304 32.3456 42.7639L30.3091 42.6743C30.0615 42.6635 29.8416 42.831 29.7862 43.0726C29.7338 43.3021 29.6222 43.8147 29.538 44.2118C29.4502 44.6258 29.6812 45.0411 30.0792 45.1849L31.6633 45.7573C32.9163 46.2101 33.9566 46.5901 33.9748 46.6019C34.0395 46.6436 34.7468 52.638 34.6918 52.6786C34.6612 52.7014 33.7572 53.2884 32.6829 53.983C31.6088 54.6778 30.7298 55.3061 30.7298 55.3793C30.7298 55.4526 30.9263 55.9568 31.1664 56.4998C31.5036 57.2621 31.6718 57.4665 31.9043 57.3963C33.2095 57.0031 36.0395 56.2502 36.2125 56.2502C36.4111 56.2502 37.2597 57.0932 39.5803 59.596C40.1494 60.2097 40.3215 61.0929 40.0243 61.8753L39.6996 62.73C39.2541 63.9026 38.8904 64.9359 38.8916 65.0266C38.8927 65.117 39.3519 65.4429 39.9119 65.7503C40.499 66.0727 41.2332 65.9216 41.6453 65.3937L42.3423 64.5009C43.1189 63.5061 43.818 62.6528 43.8958 62.6045C44.0194 62.5281 49.827 63.6403 49.9163 63.7575C49.935 63.7821 50.2244 64.8179 50.5593 66.0592L50.879 67.2439C51.0477 67.8688 51.6309 68.2903 52.2772 68.2542C52.8871 68.22 53.4446 68.1568 53.5163 68.1137C53.588 68.0705 53.6465 67.4264 53.6465 66.6821C53.6465 65.9378 53.696 64.8559 53.7564 64.2779C53.8241 63.6291 54.2378 63.0677 54.8375 62.8109L55.4057 62.5675C56.2524 62.2048 56.9451 61.8634 56.9451 61.8085C56.9451 61.7538 56.4489 61.217 55.8425 60.616L55.6959 60.4707C55.1078 59.8878 54.2453 59.6784 53.4553 59.9265C52.3744 60.2661 51.8131 60.3281 49.9138 60.3184C47.3385 60.305 45.956 59.9531 43.8085 58.7646C42.1784 57.8625 39.8668 55.5111 39.0324 53.9064C37.9194 51.7656 37.5875 50.3897 37.5875 47.9168C37.5875 45.4465 37.918 44.0741 39.0302 41.9272C39.8953 40.2575 42.3413 37.8114 44.0111 36.9463C46.1579 35.8342 47.5303 35.5036 50.0006 35.5036C52.4736 35.5036 53.8494 35.8356 55.9902 36.9486C57.5949 37.783 59.9463 40.0946 60.8484 41.7246C62.7218 45.1097 62.9914 49.0922 61.5833 52.5785C61.3286 53.2091 61.477 53.9309 61.9597 54.4099L62.3312 54.7786C62.9198 55.3627 63.9027 55.2277 64.3119 54.5064L64.3456 54.447C64.8647 53.5321 65.8533 52.9859 66.9042 53.0333L67.6557 53.0672L69.6922 53.1589C69.9397 53.17 70.1598 53.0026 70.2151 52.7611C70.2675 52.5316 70.3791 52.0189 70.4633 51.6219C70.5511 51.2079 70.3201 50.7926 69.9221 50.6488L68.338 50.0764C67.085 49.6236 66.042 49.2408 66.0203 49.2257C65.9477 49.1748 65.2447 43.205 65.3053 43.1535C65.3383 43.1255 66.2442 42.5375 67.3184 41.8467C68.3927 41.1561 69.2715 40.5299 69.2715 40.4554C69.2715 40.3809 69.069 39.8778 68.8217 39.3373C68.4861 38.6045 68.2987 38.3769 68.0838 38.4415C66.4538 38.9314 63.9467 39.5805 63.7293 39.5689C63.4838 39.5559 59.7197 35.6208 59.5781 35.2293C59.5463 35.1413 59.8783 34.1488 60.3159 33.0236C60.7536 31.8986 61.1109 30.9024 61.1097 30.8102C61.1086 30.718 60.6507 30.3917 60.0921 30.0849C59.5056 29.7627 58.7723 29.9101 58.3558 30.4338L57.5631 31.4302C56.3069 33.0097 55.9855 33.318 55.6727 33.2443C55.4654 33.1955 54.1302 32.9219 52.7057 32.6363C51.281 32.3509 50.1024 32.0979 50.0866 32.0743C50.0706 32.0507 49.8441 31.2502 49.5831 30.2953C48.8321 27.5467 48.7855 27.4281 48.468 27.458C48.3085 27.4731 47.7871 27.5316 47.3097 27.5882ZM47.6052 38.5456C45.8302 39.0108 44.4456 39.8016 43.1656 41.0818C41.8645 42.3828 41.0911 43.7531 40.6213 45.5897C40.1894 47.2786 40.1875 48.5474 40.6144 50.2161C41.2548 52.7205 42.5095 54.5272 44.5621 55.9005C46.371 57.1109 47.7722 57.5422 49.9138 57.5477C53.434 57.5569 56.2413 56.0298 58.1909 53.0456C59.2043 51.4944 59.6369 49.9279 59.6315 47.83C59.626 45.6884 59.1947 44.2871 57.9843 42.4783C56.6111 40.4257 54.8043 39.171 52.3 38.5305C50.6649 38.1123 49.2418 38.1168 47.6052 38.5456ZM8.33398 45.8335C8.33398 46.6006 8.95581 47.2224 9.72287 47.2224H12.5007H15.2784C16.0455 47.2224 16.6673 46.6006 16.6673 45.8335C16.6673 45.0664 16.0455 44.4446 15.2784 44.4446H12.5007H9.72287C8.95581 44.4446 8.33398 45.0664 8.33398 45.8335ZM83.334 45.8335C83.334 46.6006 83.9558 47.2224 84.7229 47.2224H87.5006H90.2784C91.0455 47.2224 91.6673 46.6006 91.6673 45.8335C91.6673 45.0664 91.0455 44.4446 90.2784 44.4446H87.5006H84.7229C83.9558 44.4446 83.334 45.0664 83.334 45.8335ZM58.3972 57.1014C57.8132 57.6564 57.8015 58.5837 58.3712 59.1533L64.4269 65.2076C71.4138 72.193 71.5328 72.3014 72.2189 72.3014C73.1635 72.3014 73.6908 71.7741 73.6908 70.8295C73.6908 70.1436 73.5822 70.0243 66.6642 63.1047C62.7996 59.2392 59.5982 56.0793 59.5501 56.0826C59.5019 56.0859 58.9831 56.5444 58.3972 57.1014ZM13.9989 61.895C12.1972 62.9762 10.6604 63.9259 10.5836 64.0052C10.5069 64.0845 10.756 64.6705 11.1373 65.3073C11.5199 65.9465 12.3487 66.1538 12.9872 65.7699L15.2906 64.3854C17.1937 63.2417 18.7507 62.2769 18.7507 62.2418C18.7507 62.1278 17.4939 60.0644 17.3826 59.9956C17.3232 59.959 15.8005 60.8137 13.9989 61.895ZM81.8708 61.0906C81.5298 61.6521 81.2526 62.1795 81.2548 62.2625C81.2581 62.3891 83.4821 63.7632 87.3166 66.0081C87.7614 66.2686 88.3329 66.1228 88.5986 65.6811L88.8368 65.2852C89.2328 64.6267 89.0193 63.7718 88.3602 63.3768L86.1977 62.0811C84.3515 60.9748 82.7623 60.0696 82.6659 60.0696C82.5697 60.0696 82.2119 60.529 81.8708 61.0906ZM41.5059 78.341C41.5946 78.6507 41.6673 79.5882 41.6673 80.4243C41.6673 81.2639 42.348 81.9446 43.1876 81.9446H50.6951H58.0302C58.9654 81.9446 59.724 81.1871 59.7253 80.2519C59.7265 79.3208 59.7748 78.3835 59.8322 78.1686C59.8851 77.9715 59.7366 77.7779 59.5325 77.7779H50.6406H41.9301C41.6367 77.7779 41.425 78.0589 41.5059 78.341ZM41.6944 86.4526C41.7418 87.8276 41.8178 88.2465 42.064 88.4925C42.351 88.7793 42.9675 88.8059 50.3925 88.8507C55.921 88.8842 58.5538 88.8401 58.8708 88.7088C59.5277 88.4366 59.7229 87.8599 59.7229 86.1899C59.7229 85.3794 59.0658 84.7224 58.2553 84.7224H50.6788H43.3661C42.4197 84.7224 41.6618 85.5068 41.6944 86.4526Z" fill="#1884C7"/>
</svg>
