<svg width="101" height="100" viewBox="0 0 101 100" fill="none" xmlns="http://www.w3.org/2000/svg">
<path fill-rule="evenodd" clip-rule="evenodd" d="M12.4719 8.6072C11.4673 8.96688 10.6182 9.6119 9.88077 10.5754C7.85612 13.2207 9.09528 17.3783 12.2687 18.5877C13.4211 19.0269 15.1323 19.0101 16.2004 18.5494L17.0164 18.1972L20.0438 21.2335L23.071 24.2698L22.7514 24.6679C22.5756 24.8869 21.9307 25.6759 21.3181 26.4211C17.5696 30.9821 14.8631 36.811 13.6724 42.8871L13.3227 44.6711L12.39 45.0513C10.0236 46.016 8.7365 47.9735 8.90306 50.355C9.06831 52.7192 10.5171 54.4188 13.1122 55.2931C13.2931 55.3539 13.4181 55.6645 13.4978 56.2504C14.0056 59.9848 15.826 65.0243 18.0653 68.8944C19.2028 70.8605 21.6019 74.1847 22.4963 75.0338C22.7737 75.297 23.0005 75.5911 23.0005 75.6873C23.0005 75.7834 21.6538 77.2114 20.0077 78.8604L17.0148 81.8589L16.1996 81.507C15.6206 81.2572 15.0522 81.1554 14.2381 81.1554C12.0525 81.1554 10.4115 82.1535 9.4812 84.0489C9.00851 85.0117 8.9453 85.2962 8.94742 86.4484C8.9492 87.436 9.03516 87.9419 9.29856 88.5176C9.7914 89.5947 10.8569 90.6877 11.928 91.2154C12.6984 91.5948 13.0529 91.6668 14.1481 91.6668C15.2942 91.6668 15.5829 91.602 16.5407 91.129C18.4304 90.196 19.4257 88.5502 19.4257 86.3581C19.4257 85.5417 19.3241 84.9716 19.075 84.3909L18.7242 83.5733L21.7139 80.5716C23.3582 78.9207 24.7621 77.5701 24.8337 77.5701C24.9054 77.5701 25.4912 78.0296 26.1353 78.5915C30.9899 82.8251 37.7595 86.0425 43.9051 87.0367C44.7611 87.1751 45.1533 87.3128 45.2112 87.4952C45.528 88.4929 46.3421 89.8577 46.9122 90.3469C48.0428 91.3177 48.9085 91.6445 50.3804 91.6564C51.7841 91.6676 52.3923 91.4885 53.5035 90.7366C54.3722 90.1488 54.9436 89.3978 55.4241 88.2119L55.8032 87.2763L57.6465 86.9129C63.977 85.6644 70.412 82.523 74.9459 78.4682C75.4984 77.9742 76.0108 77.5701 76.0851 77.5701C76.1592 77.5701 77.5651 78.9207 79.2093 80.5716L82.199 83.5733L81.8482 84.3909C81.5991 84.9716 81.4976 85.5417 81.4976 86.3581C81.4976 88.5502 82.4928 90.196 84.3826 91.129C85.3403 91.602 85.6291 91.6668 86.7751 91.6668C87.8737 91.6668 88.2241 91.5951 89.0052 91.2105C90.1333 90.6548 91.2865 89.4156 91.656 88.3622C91.8044 87.9389 91.9924 87.4653 92.074 87.3097C92.2787 86.9183 92.2664 85.3458 92.0595 85.474C91.9701 85.5294 91.897 85.4354 91.897 85.2653C91.897 84.6424 90.9003 82.9519 90.1876 82.3662C88.6961 81.1404 86.4074 80.7805 84.7237 81.507L83.9084 81.8589L80.9155 78.8604C79.2695 77.2114 77.9227 75.7834 77.9227 75.6873C77.9227 75.5911 78.1496 75.297 78.4269 75.0338C79.3206 74.1854 81.7202 70.861 82.8558 68.8982C84.9055 65.3556 86.4539 61.2343 87.2382 57.2344L87.6006 55.3857L88.5334 55.0055C89.0464 54.7964 89.7185 54.4321 90.0271 54.1962C90.8922 53.5343 91.897 51.9037 91.897 51.1615C91.897 50.9865 91.9701 50.8432 92.0595 50.8432C92.1508 50.8432 92.2209 50.3967 92.2196 49.8247C92.2178 49.107 92.1705 48.8783 92.0595 49.0506C91.9316 49.2491 91.9016 49.2276 91.8995 48.936C91.8941 48.1495 90.9133 46.5386 90.0271 45.8606C89.7185 45.6247 89.0464 45.2604 88.5334 45.0513L87.6006 44.6711L87.2382 42.8224C86.4518 38.8119 84.9198 34.7258 82.8813 31.2024C81.7242 29.2027 79.3281 25.8786 78.4269 25.023C78.1496 24.7598 77.9227 24.4657 77.9227 24.3695C77.9227 24.2734 79.2695 22.8454 80.9155 21.1964L83.9084 18.1979L84.7237 18.5497C86.4074 19.2763 88.6961 18.9164 90.1876 17.6906C90.8902 17.1132 91.897 15.417 91.897 14.8108C91.897 14.6512 91.9701 14.4752 92.0595 14.4198C92.1489 14.3644 92.222 13.9157 92.222 13.4228C92.222 12.9298 92.1629 12.5631 92.0907 12.6079C92.0184 12.6526 91.8749 12.3729 91.7717 11.9864C91.5431 11.1287 90.7435 10.0474 89.8098 9.33307C87.1524 7.30036 83.018 8.53582 81.8103 11.7235C81.3726 12.8789 81.3892 14.5955 81.8482 15.6659L82.199 16.4835L79.2093 19.4852C77.5651 21.1361 76.1563 22.4867 76.0784 22.4867C76.0008 22.4867 75.5406 22.1233 75.0559 21.6789C72.975 19.7715 69.194 17.2965 66.3532 15.9823C63.3994 14.6159 59.7778 13.4666 57.0182 13.0201C56.1662 12.8822 55.7684 12.743 55.7078 12.5616C54.8442 9.97174 53.1411 8.51333 50.7873 8.34792C48.4128 8.18088 46.4609 9.47175 45.4991 11.8451L45.12 12.7805L43.3412 13.1312C36.8726 14.4063 30.7831 17.3666 26.061 21.5316C25.4654 22.0568 24.9163 22.4867 24.8407 22.4867C24.7652 22.4867 23.3582 21.1361 21.7139 19.4852L18.7242 16.4835L19.075 15.6659C19.8002 13.9751 19.4406 11.6818 18.215 10.1816C16.9547 8.63931 14.3652 7.92942 12.4719 8.6072ZM13.0073 11.0596C10.2049 12.3501 11.1315 16.506 14.2162 16.482C15.8736 16.4691 17.0005 15.3402 17.0133 13.6799C17.0298 11.5442 14.933 10.1727 13.0073 11.0596ZM49.213 11.0697C48.0137 11.6159 47.2968 13.1969 47.6971 14.4133C48.124 15.7103 49.1339 16.4569 50.4616 16.4569C51.7893 16.4569 52.7992 15.7103 53.2261 14.4133C53.783 12.7213 52.2988 10.7602 50.4616 10.7602C50.1488 10.7602 49.5869 10.8995 49.213 11.0697ZM85.4336 11.0983C84.5002 11.5617 83.9015 12.5761 83.9099 13.6799C83.9227 15.3402 85.0496 16.4691 86.707 16.482C88.8331 16.4985 90.2001 14.3939 89.3165 12.4642C88.9614 11.6888 88.5991 11.3413 87.7935 11.0037C86.9748 10.6606 86.2571 10.6895 85.4336 11.0983ZM8.9141 13.605C8.91492 14.1428 8.9453 14.343 8.98154 14.0502C9.01761 13.7573 9.01696 13.3173 8.97991 13.0724C8.9427 12.8274 8.91313 13.0672 8.9141 13.605ZM43.2307 15.628C36.3568 17.1456 30.1601 20.6031 25.3506 25.6043C20.606 30.538 17.4363 36.5216 16.1065 43.0546C15.7453 44.8299 15.7547 44.8833 16.4913 45.2164C17.3309 45.5961 18.5209 46.8028 18.9762 47.7361C19.4675 48.7426 19.5648 50.665 19.1831 51.8176C18.8432 52.8438 17.4535 54.4051 16.4934 54.8394L15.8176 55.145L15.923 55.9683C16.1034 57.375 16.9982 60.6183 17.7374 62.5436C21.7862 73.0902 30.7741 81.1741 41.6058 84.0111C42.7676 84.3153 44.0838 84.6098 44.5307 84.6654L45.3431 84.7664L45.7281 84.0264C46.2233 83.074 47.2449 82.0638 48.1802 81.6016C49.2457 81.0749 51.6776 81.0749 52.743 81.6016C53.6783 82.0638 54.6999 83.074 55.1952 84.0264L55.5801 84.7664L56.3926 84.6654C56.8394 84.6098 58.1688 84.3121 59.3468 84.0037C71.4707 80.8309 81.1732 71.0913 84.3449 58.9102C84.6483 57.745 84.9419 56.4249 84.9973 55.9767L85.098 55.1619L84.3602 54.7758C83.4106 54.2791 82.4033 53.2545 81.9425 52.3165C81.4108 51.2345 81.4171 48.8094 81.9546 47.7151C82.4247 46.7578 83.3688 45.7999 84.3465 45.2881L85.098 44.8949L84.9963 44.08C84.9404 43.6319 84.6692 42.3852 84.3936 41.3096C81.6119 30.4531 73.6871 21.4837 63.1654 17.283C61.3967 16.5768 57.7617 15.5617 56.3926 15.3914L55.5801 15.2904L55.1875 16.0451C54.6437 17.0902 53.2555 18.3218 52.2399 18.6601C51.0988 19.0401 49.177 18.942 48.1802 18.4528C47.2555 17.9989 46.2294 16.9905 45.7282 16.0433C45.2828 15.2011 45.2152 15.1898 43.2307 15.628ZM47.7805 23.4145C43.9808 23.7548 39.2624 25.4182 35.9578 27.5823C32.8644 29.6081 29.7689 32.7321 28.0693 35.5434C27.3979 36.6539 27.7973 37.6428 28.917 37.6428C29.4994 37.6428 29.71 37.451 30.6844 36.0327L31.1376 35.3733L32.0625 35.9667C32.5711 36.2931 33.9759 37.0341 35.1841 37.6136C36.3924 38.193 37.3921 38.675 37.4056 38.6847C37.4192 38.6943 37.2948 39.3254 37.1292 40.0873C36.7537 41.8148 36.3502 44.8496 36.1974 47.095L36.0811 48.8061H31.2063H26.3316L26.3776 47.8283C26.4377 46.5531 26.8239 44.4435 27.2502 43.0618C27.6975 41.6121 27.6822 41.2436 27.1553 40.7891C25.8875 39.6954 25.089 40.9421 24.1862 45.4249C23.7431 47.624 23.794 52.7819 24.2811 55.0804C25.4663 60.672 27.7594 64.9403 31.6808 68.854C34.561 71.7285 37.2007 73.4986 40.6333 74.8575C50.5175 78.77 61.7139 76.478 69.2135 69.0069C71.4999 66.7292 73.6667 63.609 74.7696 61.0066C75.1891 60.0167 75.2054 59.9017 74.9831 59.5039C74.6516 58.9107 74.0054 58.6185 73.4735 58.8214C73.1653 58.9389 72.8403 59.4126 72.2264 60.6394C71.4021 62.287 70.889 63.1588 70.1563 64.1563L69.7743 64.6762L68.855 64.0865C68.3495 63.7621 66.9474 63.0227 65.7391 62.4432C64.5308 61.8638 63.5294 61.3813 63.5138 61.3708C63.4982 61.3604 63.5888 60.9126 63.7154 60.3756C64.0807 58.8256 64.581 55.1634 64.7003 53.1655L64.8098 51.3321H69.7595H74.7091L74.6152 51.8618C74.5635 52.1532 74.473 52.9506 74.414 53.6339C74.3166 54.763 74.3383 54.9078 74.6524 55.2229C74.8703 55.4414 75.2034 55.5693 75.5547 55.5693C76.4247 55.5693 76.7034 55.0723 76.9239 53.1274C77.5332 47.753 76.4743 42.1181 73.9834 37.4798C71.567 32.9801 67.46 28.8611 62.9735 26.4376C58.5631 24.0551 52.9965 22.9476 47.7805 23.4145ZM47.7262 26.418C45.141 27.6753 42.4329 31.3648 40.9024 35.7154L40.4052 37.1286L42.4678 37.6228C44.6158 38.1374 46.3899 38.4063 48.1867 38.4899L49.2429 38.5391L49.2855 32.2241C49.3343 24.9906 49.4875 25.5615 47.7262 26.418ZM51.6377 32.206L51.6803 38.5391L52.7365 38.4899C54.5333 38.4063 56.3074 38.1374 58.4554 37.6228L60.5181 37.1286L60.0209 35.7154C58.2486 30.6779 54.9724 26.6794 52.044 25.98L51.5952 25.8727L51.6377 32.206ZM41.7394 27.3597C38.8106 28.5187 36.2272 30.1399 34.1177 32.1426L32.7239 33.4659L33.1026 33.7558C33.7763 34.2715 37.7735 36.2163 37.9866 36.1322C38.1004 36.0874 38.368 35.5472 38.5812 34.9318C39.431 32.4788 41.1377 29.341 42.5356 27.661C42.8898 27.2353 43.1181 26.8893 43.0427 26.8924C42.9673 26.8955 42.3809 27.1057 41.7394 27.3597ZM58.8031 28.2314C60.0949 29.9504 61.0194 31.6477 62.0107 34.1204C62.4454 35.2043 62.8679 36.1137 62.9498 36.141C63.1566 36.2101 65.6003 35.0612 67.0411 34.2174L68.2384 33.5159L66.9384 32.2787C64.7905 30.2343 61.7537 28.3314 58.9481 27.2718C58.3875 27.0601 57.8982 26.8869 57.8608 26.8869C57.8235 26.8869 58.2474 27.492 58.8031 28.2314ZM68.9857 35.8813C68.5835 36.1534 67.1942 36.892 65.8983 37.5227C64.6025 38.1532 63.5312 38.6767 63.5177 38.6856C63.504 38.6948 63.6285 39.3254 63.7941 40.0873C64.1696 41.8148 64.5731 44.8496 64.7258 47.095L64.8421 48.8061H69.7169H74.5917L74.5403 47.7468C74.4254 45.3827 73.4443 41.8511 72.2217 39.4024C71.6205 38.198 69.8755 35.3412 69.7611 35.374C69.7369 35.381 69.3878 35.6093 68.9857 35.8813ZM39.5191 40.5241C39.1265 42.2742 38.7778 44.8895 38.659 46.9757L38.55 48.8922L43.8965 48.8492L49.2429 48.8061L49.2865 44.9477L49.33 41.0893L48.3928 40.9934C44.7638 40.6222 41.3122 40.0124 40.0371 39.5169C39.8156 39.4309 39.7245 39.6082 39.5191 40.5241ZM59.1549 39.9506C57.5726 40.3652 55.5319 40.6864 52.5305 40.9934L51.5932 41.0893L51.6368 44.9477L51.6803 48.8061L57.0268 48.8492L62.3732 48.8922L62.2642 46.9757C62.0985 44.0651 61.345 39.3957 61.0512 39.4588C60.9913 39.4716 60.138 39.6929 59.1549 39.9506ZM13.3795 47.256C12.2091 47.6099 11.3083 48.8157 11.3083 50.0284C11.3083 51.8709 13.2637 53.3595 14.9507 52.801C16.2205 52.3807 17.0259 51.3048 17.0259 50.0284C17.0259 48.1161 15.1791 46.712 13.3795 47.256ZM85.7235 47.3458C84.537 47.8803 83.8974 48.8197 83.8974 50.0284C83.8974 51.3048 84.7027 52.3807 85.9726 52.801C87.6596 53.3595 89.615 51.8709 89.615 50.0284C89.615 48.0803 87.4326 46.5759 85.7235 47.3458ZM8.91573 50.0284C8.91573 50.611 8.9453 50.8494 8.98121 50.558C9.01729 50.2667 9.01729 49.79 8.98121 49.4987C8.9453 49.2075 8.91573 49.4458 8.91573 50.0284ZM26.3391 52.3507C26.7463 56.3069 28.1759 60.2974 30.3359 63.5078L31.1301 64.6882L32.0588 64.0926C32.5695 63.7648 33.9759 63.0227 35.1841 62.4432C36.3924 61.8638 37.3939 61.3813 37.4095 61.3708C37.4251 61.3604 37.3344 60.9126 37.2078 60.3756C36.8425 58.8256 36.3422 55.1634 36.223 53.1655L36.1134 51.3321H31.1738H26.2343L26.3391 52.3507ZM38.6608 53.1655C38.7825 55.1978 39.1379 57.8333 39.5191 59.5327C39.7245 60.4486 39.8156 60.6259 40.0371 60.5399C41.3119 60.0446 44.7666 59.4341 48.3899 59.0637L49.3242 58.9682V55.1502V51.3321H43.9376H38.5508L38.6608 53.1655ZM51.5991 55.1502V58.9682L52.5334 59.0637C56.1566 59.4341 59.6114 60.0446 60.8861 60.5399C61.1076 60.6259 61.1988 60.4486 61.4041 59.5327C61.7854 57.8333 62.1407 55.1978 62.2624 53.1655L62.3724 51.3321H56.9857H51.5991V55.1502ZM47.8618 61.547C46.3083 61.6728 43.6496 62.1148 42.1274 62.5002C41.2524 62.7217 40.5051 62.9029 40.4664 62.9029C40.3203 62.9029 41.4266 65.8091 42.0483 67.0586C43.9269 70.8339 46.5391 73.518 48.8793 74.0768L49.3281 74.1841L49.2855 67.8508C49.2372 60.6807 49.4048 61.4218 47.8618 61.547ZM51.7125 61.5397C51.6501 61.6023 51.5991 64.4726 51.5991 67.9183V74.1831L52.0459 74.0763C53.1177 73.8205 54.3265 73.054 55.5128 71.8781C57.3605 70.0466 58.9452 67.399 60.0171 64.352L60.5106 62.9492L59.5891 62.6927C58.1436 62.2901 55.5276 61.7944 54.2802 61.6865C53.6546 61.6322 52.8465 61.5516 52.4843 61.5069C52.1223 61.4624 51.7749 61.4771 51.7125 61.5397ZM36.3936 64.5161C35.6718 64.8577 34.542 65.453 33.8829 65.8389L32.6849 66.5408L33.9848 67.7781C35.5195 69.2388 37.6542 70.7384 39.5747 71.705C40.7987 72.321 42.8341 73.1699 43.0871 73.1699C43.1381 73.1699 42.8898 72.8216 42.5356 72.3958C41.1398 70.7184 39.6886 68.0801 38.6774 65.3823C38.3847 64.6012 38.0464 63.947 37.9255 63.9286C37.8048 63.9102 37.1154 64.1745 36.3936 64.5161ZM62.7018 64.1659C61.6822 67.1019 60.1352 70.1094 58.6593 72.0254C58.1743 72.6548 57.8116 73.1699 57.8532 73.1699C58.0883 73.1699 60.1604 72.3032 61.3486 71.7081C63.3771 70.6917 65.297 69.3504 66.858 67.8588L68.2377 66.5404L67.0408 65.8393C65.7739 65.0971 63.2426 63.8807 62.9654 63.8807C62.8749 63.8807 62.7562 64.0091 62.7018 64.1659ZM13.6342 83.6058C12.3326 83.883 11.2966 85.1171 11.3047 86.3811C11.3089 87.0384 11.7731 88.127 12.2184 88.5235C14.1023 90.2013 17.0327 88.8913 17.0133 86.3801C17.0099 85.9377 16.8959 85.3599 16.7599 85.0961C16.4412 84.4781 15.6208 83.788 15.0665 83.6714C14.2596 83.5019 14.1459 83.4967 13.6342 83.6058ZM86.4535 83.5572C85.6089 83.7011 85.3876 83.7922 84.9165 84.1897C84.2183 84.779 83.9172 85.4339 83.9099 86.3801C83.894 88.4533 85.9113 89.8417 87.7935 89.0531C88.5991 88.7155 88.9614 88.368 89.3165 87.5926C89.7083 86.737 89.6988 85.9802 89.2856 85.1241C88.8059 84.1305 87.46 83.3857 86.4535 83.5572ZM49.0804 83.9032C47.5512 84.8503 47.1533 86.5768 48.1234 88.0537C49.5128 90.1687 52.8504 89.3809 53.3104 86.8291C53.5054 85.7478 52.7908 84.3782 51.7503 83.8385C51.0949 83.4985 49.6781 83.5329 49.0804 83.9032ZM8.9141 86.4518C8.91492 86.9896 8.9453 87.1899 8.98154 86.8971C9.01761 86.6042 9.01696 86.1642 8.97991 85.9193C8.9427 85.6743 8.91313 85.914 8.9141 86.4518Z" fill="#1884C7"/>
</svg>
