<svg width="100" height="100" viewBox="0 0 100 100" fill="none" xmlns="http://www.w3.org/2000/svg">
<path fill-rule="evenodd" clip-rule="evenodd" d="M49.0153 8.73C48.6223 9.12356 48.6164 9.17158 48.6164 11.9634C48.6164 14.5837 48.6418 14.8295 48.9532 15.226C49.4288 15.8318 50.4036 15.8318 50.8791 15.226C51.1906 14.8295 51.2159 14.5837 51.2159 11.9634C51.2159 9.17158 51.2101 9.12356 50.8171 8.73C50.2895 8.20133 49.5428 8.20133 49.0153 8.73ZM36.2095 15.504C35.8801 15.7635 35.7814 15.9851 35.7814 16.4647C35.7814 17.0602 35.8842 17.1808 38.097 19.1791C41.9404 22.6499 41.7359 22.4911 42.3618 22.4911C43.1004 22.4911 43.5799 22.0178 43.5799 21.2884C43.5799 20.5932 43.5636 20.5752 40.2735 17.6231C37.3212 14.974 37.0567 14.8362 36.2095 15.504ZM59.5589 17.6231C56.2687 20.5752 56.2525 20.5932 56.2525 21.2884C56.2525 22.0178 56.7319 22.4911 57.4705 22.4911C58.0965 22.4911 57.8919 22.6499 61.7353 19.1791C63.9481 17.1808 64.051 17.0602 64.051 16.4647C64.051 15.9851 63.9522 15.7635 63.6229 15.504C62.7756 14.8362 62.5111 14.974 59.5589 17.6231ZM20.3996 18.8222C20.1159 18.9459 19.7743 19.2175 19.6404 19.4262C19.5064 19.6347 18.8735 21.1971 18.2341 22.898C17.5944 24.5989 17.0077 26.0563 16.9302 26.1367C16.8528 26.2171 15.1588 26.3677 13.166 26.4712C9.3176 26.6711 9.06967 26.7295 8.58665 27.5486C8.27683 28.0743 8.25132 28.6635 8.51354 29.2402C8.61769 29.4692 9.93076 30.6468 11.4316 31.8573C12.9324 33.0677 14.2024 34.1263 14.2539 34.2096C14.3054 34.2931 13.9426 35.8485 13.4479 37.6663C12.9532 39.4839 12.5483 41.2151 12.5483 41.5133C12.5483 42.345 13.4342 43.1624 14.3356 43.1624C14.9338 43.1624 15.386 42.9214 17.9977 41.2092C19.6363 40.135 21.0497 39.256 21.138 39.256C21.2266 39.256 22.6373 40.135 24.273 41.2092C26.9198 42.9476 27.3245 43.1624 27.9523 43.1624C28.5125 43.1624 28.7538 43.0662 29.1244 42.695C29.914 41.9039 29.8998 41.6562 28.8443 37.7851L27.8753 34.2308L30.6865 31.9825C33.8766 29.4311 34.1903 29.0283 33.815 27.9649C33.3989 26.7865 33.0655 26.6662 29.8035 26.5179C28.2214 26.4458 26.5549 26.349 26.1005 26.3024L25.274 26.2179L24.1642 23.2558C22.7393 19.453 22.5978 19.1762 21.9145 18.8513C21.2436 18.5324 21.0722 18.529 20.3996 18.8222ZM49.1566 18.8158C48.873 18.9429 48.5353 19.2175 48.4063 19.4262C48.2773 19.6347 47.6338 21.2462 46.9763 23.0071L45.7807 26.2088L45.1271 26.2961C44.7675 26.3441 43.194 26.4326 41.6302 26.4929C40.0665 26.5532 38.6043 26.6711 38.3809 26.7549C37.7814 26.98 37.2741 27.515 37.158 28.045C36.9323 29.0747 37.2559 29.4754 40.2439 31.8656C41.8 33.1105 43.0775 34.2189 43.0827 34.3291C43.0881 34.4391 42.6904 35.9971 42.1989 37.7911C41.7074 39.5851 41.3053 41.2786 41.3053 41.5543C41.3053 41.9073 41.4686 42.2192 41.8577 42.609C42.3133 43.0654 42.5316 43.1624 43.1034 43.1624C43.715 43.1624 44.1477 42.9328 46.7812 41.2092C48.4228 40.135 49.8359 39.256 49.9215 39.256C50.0073 39.256 51.4185 40.135 53.0578 41.2092C55.6864 42.9319 56.1199 43.1624 56.7303 43.1624C57.3005 43.1624 57.5194 43.0651 57.9746 42.609C58.3637 42.2192 58.527 41.9073 58.527 41.5543C58.527 41.2786 58.1249 39.5851 57.6334 37.7911C57.142 35.9971 56.7433 34.4391 56.7475 34.3291C56.7517 34.2189 58.0045 33.1401 59.5314 31.9315C62.494 29.5866 62.8716 29.1258 62.6776 28.0901C62.5567 27.4446 61.805 26.7678 61.0812 26.6529C60.7933 26.6073 59.1121 26.5047 57.3449 26.4251C55.5776 26.3456 54.108 26.2518 54.0788 26.2168C54.0497 26.182 53.4486 24.6228 52.7428 22.752C51.3906 19.1677 51.1852 18.8432 50.1599 18.668C49.8918 18.6221 49.4403 18.6887 49.1566 18.8158ZM77.893 18.857C77.2269 19.1858 77.1754 19.2867 75.7473 23.0668C75.106 24.7644 74.5535 26.182 74.5195 26.2168C74.4854 26.2518 72.8129 26.364 70.8027 26.4662C66.6802 26.6758 66.4467 26.7489 66.0173 27.9649C65.642 29.0283 65.9558 29.4311 69.1458 31.9825L71.957 34.2308L70.9881 37.7851C69.9325 41.6562 69.9184 41.9039 70.708 42.695C71.0789 43.0666 71.3197 43.1624 71.8818 43.1624C72.5114 43.1624 72.9166 42.9479 75.5728 41.2092C77.2139 40.135 78.6321 39.256 78.7242 39.256C78.8163 39.256 80.2249 40.135 81.8545 41.2092C84.4529 42.9222 84.9013 43.1624 85.4983 43.1624C86.4002 43.1624 87.284 42.3444 87.284 41.5097C87.284 41.2094 86.8832 39.4992 86.3934 37.7091C85.9034 35.919 85.5013 34.4028 85.4998 34.3397C85.4982 34.2767 86.7617 33.2027 88.3074 31.9534C89.8533 30.7038 91.2059 29.4886 91.3131 29.2526C91.6574 28.4955 91.5518 27.9052 90.9553 27.2531L90.4023 26.6486L87.4216 26.5181C85.7822 26.4463 84.0788 26.335 83.6364 26.2705L82.8321 26.1533L81.5775 22.8485C80.8875 21.0307 80.2259 19.4264 80.1073 19.2831C79.8771 19.005 78.9828 18.5822 78.6378 18.5884C78.5232 18.5904 78.188 18.7113 77.893 18.857ZM20.1891 25.1338C19.7117 26.4107 19.2217 27.6557 19.1002 27.9003C18.7176 28.6702 18.1559 28.8273 15.2289 28.9827C13.7459 29.0615 12.5009 29.1577 12.462 29.1966C12.4234 29.2355 13.3683 30.0557 14.5619 31.0194C16.6536 32.7079 17.0974 33.2107 17.0974 33.8912C17.0974 34.0654 16.7712 35.3952 16.3723 36.8464C15.9735 38.2977 15.6638 39.5016 15.6839 39.5218C15.7041 39.542 16.8092 38.8512 18.1397 37.9868C20.068 36.7338 20.6782 36.4149 21.1481 36.4149C21.6189 36.4149 22.2035 36.7218 24.0526 37.9393C25.326 38.7775 26.4082 39.4229 26.4578 39.3732C26.5073 39.3236 26.2493 38.186 25.8844 36.8451C25.1427 34.1201 25.0825 33.4534 25.5265 32.8894C25.6946 32.6759 26.7544 31.7688 27.8815 30.8736L29.9307 29.2459L29.3224 29.1333C28.9877 29.0712 28.1291 29.0125 27.4142 29.0027C25.0539 28.9705 23.9539 28.7838 23.5197 28.3417C23.2966 28.1145 22.7353 26.8959 22.2118 25.5023C21.7075 24.1594 21.2414 23.0048 21.1759 22.9364C21.1106 22.8679 20.6664 23.8567 20.1891 25.1338ZM48.9539 25.1808C47.9386 27.9032 47.6374 28.4612 47.0661 28.6788C46.8392 28.7652 45.4431 28.9047 43.9638 28.9887C42.4847 29.0725 41.2473 29.1684 41.2143 29.2015C41.1813 29.2345 42.109 30.027 43.2759 30.9628C45.3797 32.6498 45.8544 33.1941 45.8544 33.9189C45.8544 34.1256 45.5955 35.2463 45.2791 36.4092C44.9627 37.572 44.6393 38.7624 44.5605 39.0544C44.4548 39.447 44.467 39.5562 44.608 39.474C44.7126 39.4128 45.8174 38.6995 47.0629 37.889C48.8561 36.7219 49.4499 36.4149 49.9154 36.4149C50.3769 36.4149 50.9545 36.7082 52.606 37.7807C53.7626 38.5317 54.8692 39.2498 55.0648 39.3763C55.413 39.6013 55.4175 39.5944 55.2747 39.0649C55.1943 38.7672 54.8697 37.572 54.5532 36.4092C54.2369 35.2463 53.9779 34.1256 53.9779 33.9189C53.9779 33.1892 54.4543 32.6451 56.5611 30.968C57.7319 30.036 58.6599 29.2435 58.6235 29.207C58.5871 29.1705 57.2893 29.0691 55.7395 28.9817C53.7633 28.8704 52.8133 28.7517 52.5584 28.5844C52.0971 28.2818 51.7881 27.6487 50.7966 24.9749C50.3571 23.7896 49.9608 22.8195 49.9162 22.8191C49.8715 22.8187 49.4385 23.8814 48.9539 25.1808ZM78.6243 22.9278C78.5794 23.001 78.1289 24.1594 77.6231 25.5023C77.0998 26.8913 76.5351 28.1153 76.3127 28.3417C75.8784 28.7838 74.7785 28.9705 72.4181 29.0027C71.7033 29.0125 70.8446 29.0712 70.5099 29.1333L69.9016 29.2459L71.9509 30.8736C73.0779 31.7688 74.1377 32.6759 74.3058 32.8894C74.7561 33.4611 74.6868 34.1671 73.9011 37.018C73.5127 38.4279 73.2194 39.5816 73.2498 39.5816C73.28 39.5816 74.3115 38.9137 75.5422 38.0975C78.0577 36.4289 78.3812 36.2719 79.0153 36.4114C79.2618 36.4657 80.5088 37.1965 81.7862 38.0356C83.0637 38.8747 84.1261 39.5441 84.1471 39.5231C84.168 39.5023 83.8589 38.2977 83.46 36.8464C83.0611 35.3952 82.7349 34.0654 82.7349 33.8912C82.7349 33.2125 83.1736 32.718 85.2736 31.0288C86.4712 30.0656 87.4169 29.2435 87.3753 29.2018C87.3338 29.1601 86.0865 29.0615 84.6035 28.9827C81.8212 28.8349 81.1268 28.6645 80.798 28.0489C80.7102 27.8847 80.2259 26.6586 79.7218 25.3242C78.7309 22.7019 78.7445 22.7317 78.6243 22.9278ZM47.3167 46.5115C45.4986 46.9899 44.0819 47.8363 42.596 49.3319C40.4723 51.4692 39.5258 53.7077 39.5206 56.6053C39.5149 59.7174 41.1558 63.1583 43.4068 64.754C43.7662 65.0088 44.0619 65.2606 44.0639 65.3136C44.0657 65.3665 43.7566 65.5026 43.3768 65.6159C42.408 65.905 40.2889 66.9839 38.9867 67.851C37.8675 68.5963 35.5797 70.7316 34.686 71.8651L34.1929 72.4907L33.118 71.4136C31.9617 70.2554 30.2202 69.0416 28.7906 68.3977C28.3018 68.1773 27.8737 67.9785 27.8396 67.9557C27.8054 67.9329 28.1567 67.4986 28.6201 66.9906C30.0547 65.4181 30.7448 63.6524 30.7448 61.555C30.7448 56.1815 25.6353 52.2842 20.4713 53.7186C16.6095 54.7914 14.0404 58.7449 14.6385 62.6944C14.874 64.2508 15.7012 65.9619 16.7684 67.1007C17.2134 67.5758 17.561 67.9739 17.5406 67.9856C17.5203 67.9973 17.122 68.1617 16.6555 68.3509C14.7627 69.1181 12.3852 70.9888 10.9842 72.8128C10.0429 74.0384 8.91273 76.1835 8.56066 77.4126C7.93288 79.605 8.81167 81.6852 10.8206 82.7617C11.489 83.1198 11.5389 83.1217 21.1185 83.1672L30.7448 83.2129L30.7487 85.039C30.752 86.5747 30.8129 87.0124 31.132 87.7894C31.8626 89.5693 33.0828 90.7047 34.9367 91.3304C35.9136 91.6602 36.2127 91.6668 49.8939 91.6668C63.3602 91.6668 63.8908 91.6554 64.8869 91.3441C66.7402 90.7645 68.3057 89.1996 68.842 87.3901C68.9915 86.8857 69.0875 85.9075 69.0875 84.8874V83.2129L78.7138 83.1672C88.3329 83.1216 88.3406 83.1213 89.0215 82.7567C89.93 82.2702 90.7443 81.4065 91.0936 80.559C91.2507 80.178 91.4447 79.7391 91.525 79.5837C91.7141 79.217 91.7151 77.785 91.5261 77.902C91.4465 77.9513 91.3323 77.7293 91.2723 77.4088C91.1164 76.5764 89.7674 74.0098 88.8757 72.8487C87.4473 70.989 85.0847 69.1243 83.1768 68.3509C82.7104 68.1617 82.312 67.9973 82.2917 67.9856C82.2714 67.9739 82.6189 67.5758 83.0639 67.1007C84.7559 65.2954 85.5781 62.6542 85.1809 60.3019C84.6431 57.1187 82.2563 54.4543 79.2361 53.6662C76.5102 52.9549 73.4628 53.7891 71.461 55.7946C68.3774 58.8837 68.2794 63.8992 71.2414 67.0367C71.693 67.5152 72.0329 67.9268 71.9967 67.9519C71.9604 67.9768 71.5306 68.1773 71.0417 68.3977C69.6121 69.0416 67.8706 70.2554 66.7143 71.4136L65.6394 72.4907L65.1463 71.8651C64.2526 70.7316 61.9649 68.5963 60.8456 67.851C59.5434 66.9839 57.4243 65.905 56.4555 65.6159C56.0759 65.5026 55.7667 65.3665 55.7685 65.3136C55.7704 65.2606 56.0588 65.0141 56.4092 64.7658C58.6333 63.1897 60.3182 59.7011 60.3114 56.6867C60.3046 53.7287 59.3675 51.4904 57.2315 49.3303C55.7277 47.8096 54.3251 46.9814 52.4409 46.5016C51.2227 46.1913 48.5136 46.1966 47.3167 46.5115ZM47.4421 49.232C42.8473 50.8382 40.8202 55.921 43.0309 60.2918C43.2666 60.7576 43.9069 61.5866 44.4538 62.1338C47.5191 65.2007 52.3132 65.2007 55.3785 62.1338C58.0971 59.4138 58.4682 55.3601 56.2927 52.1489C55.5371 51.0335 54.0271 49.8417 52.7308 49.3375C51.2796 48.773 48.8913 48.7253 47.4421 49.232ZM21.0493 56.2446C19.5442 56.7397 18.3382 57.8407 17.6393 59.3577C16.444 61.9519 17.591 65.1141 20.2014 66.4208C21.482 67.0619 22.609 67.1936 23.9372 66.857C28.029 65.8202 29.4976 60.9663 26.6891 57.7618C26.424 57.4593 25.7603 56.9732 25.2141 56.6815C24.4017 56.2477 23.9941 56.1395 22.9744 56.0864C22.1869 56.0454 21.4779 56.1037 21.0493 56.2446ZM75.8199 56.164C74.9512 56.389 73.6199 57.2095 73.0595 57.8654C71.7518 59.3959 71.3307 61.5891 72.0024 63.3717C72.6721 65.1497 74.0594 66.3918 75.8951 66.857C80.2564 67.962 84.0425 63.4207 82.1791 59.3196C81.6395 58.1321 80.4946 56.9761 79.3583 56.4713C78.53 56.1033 76.6759 55.9424 75.8199 56.164ZM47.8041 67.1868C43.6228 67.957 41.0116 69.2168 38.4015 71.7235C36.2124 73.8258 34.8628 76.0002 33.9029 78.971C33.5016 80.2125 33.4481 80.6521 33.3817 83.2534C33.319 85.7073 33.3499 86.2631 33.5825 86.8734C33.9068 87.724 34.866 88.6058 35.7583 88.8736C36.6537 89.1423 63.1787 89.1423 64.074 88.8736C64.9663 88.6058 65.9255 87.724 66.2498 86.8734C66.4825 86.2631 66.5133 85.7073 66.4506 83.2534C66.3842 80.6521 66.3307 80.2125 65.9294 78.971C65.4207 77.3968 64.4927 75.4486 63.7041 74.3001C62.7818 72.9567 60.6273 70.8454 59.2232 69.9097C56.489 68.087 53.8361 67.2631 50.4036 67.171C49.1972 67.1386 48.0275 67.1456 47.8041 67.1868ZM20.1843 69.9473C17.3725 70.5542 15.1785 71.8844 13.2289 74.1642C12.4498 75.0751 11.1579 77.5268 10.9931 78.4069C10.8523 79.1584 11.1746 79.9071 11.8042 80.2919C12.2784 80.5815 12.7897 80.5974 21.5653 80.5961L30.8261 80.5946L31.1785 79.1363C31.3723 78.3341 31.7916 77.0738 32.1102 76.3357L32.6894 74.9935L32.2519 74.3608C31.2769 72.9515 29.1544 71.3659 27.1648 70.5609C25.054 69.7067 22.385 69.4722 20.1843 69.9473ZM74.6708 69.9364C71.9336 70.5327 68.9335 72.4049 67.5804 74.3608L67.1429 74.9935L67.7221 76.3357C68.0407 77.0738 68.4601 78.3341 68.6539 79.1363L69.0063 80.5946L78.267 80.5961C87.0426 80.5974 87.5539 80.5815 88.0281 80.2919C88.6577 79.9071 88.98 79.1584 88.8392 78.4069C88.6723 77.5159 87.3788 75.0708 86.5783 74.1335C85.2088 72.53 83.5698 71.3126 81.8231 70.6016C79.7094 69.741 76.8064 69.471 74.6708 69.9364ZM8.37284 78.8083C8.37284 79.3006 8.40323 79.502 8.44043 79.2559C8.47764 79.0098 8.47764 78.6068 8.44043 78.3607C8.40323 78.1146 8.37284 78.3159 8.37284 78.8083Z" fill="#1884C7"/>
</svg>
