<svg width="97" height="84" viewBox="0 0 97 84" fill="none" xmlns="http://www.w3.org/2000/svg">
<path fill-rule="evenodd" clip-rule="evenodd" d="M11.0577 0.655078L10.6331 1.10723V15.4773C10.6331 29.3348 10.6464 29.8639 11.0065 30.3084L11.3798 30.7695H29.8487H48.3175L48.7624 30.3246L49.2073 29.8797V15.4148V0.949805L48.7462 0.576562C48.2995 0.214844 47.7106 0.203125 29.8839 0.203125H11.4825L11.0577 0.655078ZM13.693 3.26309C13.6214 3.33457 13.5628 8.91562 13.5628 15.6654V27.9375H29.969H46.3753V15.5352V3.13281H41.0042H35.6331V6.46191C35.6331 9.73633 35.6253 9.79902 35.1536 10.2705L34.6743 10.75H29.9995C23.9094 10.75 24.4239 11.1299 24.3376 6.56836L24.2727 3.13281H19.0479C16.1743 3.13281 13.7645 3.19141 13.693 3.26309ZM27.43 5.47656V7.82031H29.969H32.5081V5.47656V3.13281H29.969H27.43V5.47656ZM70.0255 19.5217C69.8204 19.7268 69.5483 20.408 69.421 21.0353C69.2938 21.6625 69.1288 22.4801 69.0546 22.852C68.9358 23.4463 68.8108 23.5619 68.0196 23.8076L67.1198 24.0869L65.3813 22.985C64.4251 22.3787 63.4885 21.8828 63.3001 21.8828C62.6384 21.8828 61.8856 22.4516 59.9983 24.3773C57.6717 26.7512 57.6428 26.8957 59.0706 29.0117C59.6077 29.8076 60.0471 30.5543 60.0471 30.6709C60.0471 31.1902 59.2282 32.431 58.8241 32.5238C58.5837 32.5791 57.6415 32.7939 56.7305 33.001C54.3846 33.5342 54.3831 33.5371 54.3831 37.1477C54.3831 39.9502 54.401 40.0826 54.8426 40.5242C55.1286 40.8102 55.7376 41.0721 56.454 41.2176C57.0874 41.3461 57.91 41.5121 58.2819 41.5863C58.8772 41.7053 58.9917 41.8297 59.2393 42.6271L59.5206 43.5328L58.4167 45.2369C57.8094 46.174 57.3128 47.108 57.3128 47.3121C57.3128 48.0039 57.8591 48.7332 59.8073 50.6426C62.1731 52.9613 62.2714 52.9801 64.4284 51.5289L65.9415 50.5111L66.8413 50.9918L67.7411 51.4726L68.1737 53.5174C68.7657 56.3154 68.6757 56.2578 72.4495 56.2578C76.2102 56.2578 76.194 56.2674 76.7464 53.6949L77.137 51.8754L78.0378 51.541L78.9385 51.2066L80.5768 52.3053C82.9864 53.9211 83.0134 53.915 85.7469 51.1535C87.5081 49.3742 87.9768 48.7873 87.9768 48.3611C87.9768 48.0287 87.602 47.2894 87.0003 46.4355C86.4632 45.673 86.0237 44.931 86.0237 44.7865C86.0237 44.6418 86.1946 44.1885 86.4036 43.7789C86.7741 43.0525 86.8259 43.0262 88.5032 42.7037C90.7161 42.2781 91.1975 42.0809 91.4671 41.4893C91.7608 40.8449 91.7598 35.7312 91.4661 35.0863C91.1901 34.4809 91.0075 34.4025 88.9583 34.01L87.3032 33.693L86.9719 32.8008L86.6407 31.9088L87.7971 30.0775C88.4331 29.0705 88.9534 28.1826 88.9534 28.1047C88.9534 27.3855 88.1143 26.4375 85.1071 23.7588C83.9799 22.7549 83.468 22.781 81.6118 23.9381L80.1005 24.8801L79.211 24.4068L78.3215 23.9336L77.8882 21.885C77.2942 19.0775 77.4081 19.1484 73.502 19.1484C70.7075 19.1484 70.3616 19.1855 70.0255 19.5217ZM72.0848 23.8822C71.8592 25.0068 71.6303 25.615 71.3245 25.9031C70.8696 26.3316 67.6534 27.5473 66.977 27.5463C66.7641 27.5461 65.9309 27.1068 65.1253 26.5703C64.3196 26.0338 63.5684 25.5945 63.4559 25.5943C63.1897 25.5936 61.805 27.0119 61.805 27.2852C61.805 27.4006 62.2005 28.085 62.6839 28.8059C63.1673 29.5268 63.5632 30.2635 63.5635 30.443C63.5645 30.9529 61.6118 34.7586 61.2497 34.9521C61.0718 35.0473 60.1532 35.2785 59.2089 35.4658L57.4915 35.8068L57.5487 37.0848L57.6057 38.3629L59.0706 38.6832C60.8885 39.0807 61.3079 39.3008 61.5594 39.9906C61.6686 40.29 61.9883 41.1525 62.2698 41.9072C62.5512 42.6617 62.7815 43.4916 62.7815 43.7514C62.7815 44.0109 62.3272 44.9156 61.7717 45.7615L60.762 47.2996L61.6635 48.2012L62.5651 49.1025L63.9405 48.1881C64.6969 47.685 65.5094 47.2734 65.746 47.2734C66.2772 47.2734 69.6655 48.9353 70.0895 49.4039C70.2596 49.592 70.5403 50.5078 70.713 51.4393L71.0272 53.1328H72.3399H73.6524L73.9854 51.5838C74.1684 50.7318 74.469 49.8652 74.6534 49.6582C75.0399 49.2238 78.2487 48.0547 79.0538 48.0547C79.3827 48.0547 80.177 48.4467 81.0729 49.0514L82.5501 50.048L83.4079 49.206C83.8798 48.743 84.2659 48.2916 84.2659 48.2031C84.2659 48.1148 83.8704 47.4529 83.387 46.7322C82.9036 46.0117 82.5081 45.2465 82.5081 45.0316C82.5081 44.4816 84.4759 40.6723 84.8421 40.5131C85.0087 40.4408 85.8919 40.2389 86.8049 40.0644L88.4651 39.7471L88.5225 38.4502L88.5798 37.1531L87.6436 36.9551C87.1286 36.8463 86.3835 36.6977 85.9876 36.6248C85.5919 36.5521 85.1153 36.3238 84.9286 36.1176C84.4839 35.6262 83.2983 32.4861 83.2932 31.7861C83.2909 31.4478 83.6688 30.6779 84.2862 29.7627L85.2833 28.2853L84.3538 27.3418L83.4245 26.3982L82.2339 27.2414C80.444 28.5092 80.4257 28.5098 78.1151 27.3615C77.0051 26.8098 75.9989 26.2404 75.879 26.0959C75.759 25.9516 75.5173 25.0324 75.3413 24.0533L75.0214 22.2734H73.7145H72.4075L72.0848 23.8822ZM71.0823 30.932C69.2565 31.5332 67.7676 32.9021 66.9157 34.7631C66.3237 36.056 66.2518 38.2521 66.7571 39.617C68.4678 44.2394 74.4544 45.4064 77.8598 41.7814C80.9048 38.5402 79.8421 33.1955 75.7698 31.2689C74.5841 30.708 72.2682 30.5416 71.0823 30.932ZM11.4759 33.7967C11.2413 33.892 10.9555 34.1451 10.8411 34.359C10.6997 34.623 10.6331 39.0062 10.6331 48.033V61.3182L9.90066 61.4314C5.34519 62.1357 2.27468 64.5109 0.556128 68.6601C0.0274167 69.9367 -0.00930208 70.1955 0.0014401 72.5664C0.011401 74.7791 0.0752682 75.2691 0.496948 76.3779C1.85554 79.9496 4.89675 82.6459 8.53445 83.5035C9.5866 83.7515 15.0419 83.7914 48.2483 83.7939C85.9663 83.7969 86.7729 83.789 88.2532 83.4105C90.3751 82.8678 91.561 82.1734 93.2569 80.4805C95.6473 78.0941 96.5706 75.8435 96.5706 72.4017C96.5706 67.3008 93.552 63.3342 88.4661 61.7525C87.6157 61.4881 85.0069 61.4404 68.4007 61.3859L49.3128 61.323L49.26 47.956L49.2073 34.5889L48.7624 34.1439L48.3176 33.6992L30.11 33.6611C19.8497 33.6398 11.7163 33.6988 11.4759 33.7967ZM71.7942 34.0059C69.3704 34.9766 68.6534 37.9615 70.3735 39.9211C71.6239 41.3459 74.4221 41.3422 75.7135 39.9141C76.5421 38.9977 76.8682 37.3332 76.4409 36.2021C75.7936 34.4887 73.4061 33.3603 71.7942 34.0059ZM13.5628 49.0312V61.3359H29.969H46.3753V49.0312V36.7266H41.0042H35.6331V40.7041C35.6331 44.4324 35.6077 44.7139 35.2282 45.1963L34.8235 45.7109H29.985C25.3161 45.7109 25.1337 45.6965 24.7747 45.3002C24.4385 44.9291 24.3966 44.4959 24.3397 40.808L24.2766 36.7266H18.9198H13.5628V49.0312ZM27.43 39.7539V42.7812H29.969H32.5081V39.7539V36.7266H29.969H27.43V39.7539ZM9.01863 64.6725C5.13328 65.593 2.35886 69.7383 2.97292 73.7057C3.53679 77.3482 6.23796 80.0793 9.85183 80.6601C11.6147 80.9435 85.0421 80.9435 86.8049 80.6601C90.4188 80.0793 93.12 77.3482 93.6839 73.7057C94.2448 70.0824 92.103 66.4404 88.5628 64.9967L87.4885 64.5586L48.6214 64.5285C26.4044 64.5111 9.43913 64.5728 9.01863 64.6725ZM9.94949 67.8398C8.83464 68.3719 7.66023 69.5791 7.20808 70.6578C7.0366 71.067 6.8989 71.9471 6.89851 72.6371C6.89656 75.6066 9.10066 77.8045 12.0979 77.8217C13.2104 77.8281 13.6514 77.7322 14.4651 77.3072C17.6747 75.6305 18.3649 71.4848 15.8587 68.9373C14.8675 67.9299 13.8805 67.515 12.2932 67.4392C11.1673 67.3853 10.7538 67.456 9.94949 67.8398ZM28.1135 67.7553C26.1911 68.6316 25.0848 70.1965 24.9382 72.2465C24.862 73.3111 24.9261 73.7478 25.2792 74.5685C26.0854 76.4428 28.2528 77.9375 30.1643 77.9375C32.855 77.9375 35.4378 75.3068 35.4378 72.5664C35.4378 70.6428 34.1757 68.6711 32.4214 67.8543C31.1743 67.2736 29.2665 67.2297 28.1135 67.7553ZM46.0235 67.8961C43.4219 69.1926 42.319 72.4168 43.611 74.9494C44.4286 76.5516 46.6163 77.9375 48.3284 77.9375C50.0405 77.9375 52.2282 76.5516 53.0458 74.9494C54.7973 71.5158 52.2227 67.3906 48.3284 67.3906C47.3317 67.3906 46.8069 67.5057 46.0235 67.8961ZM64.1229 67.9375C60.8141 69.666 60.2489 73.983 63.0067 76.4625C63.9874 77.3441 65.3897 77.9375 66.4925 77.9375C68.404 77.9375 70.5714 76.4428 71.3776 74.5685C72.2276 72.5924 71.6198 70.049 69.9632 68.6506C68.3001 67.2469 65.986 66.9642 64.1229 67.9375ZM82.801 67.6283C80.5526 68.4217 78.9694 70.9523 79.2852 73.248C79.5602 75.2476 81.3317 77.215 83.3454 77.7572C84.4733 78.0609 85.9659 77.8224 87.1428 77.1504C89.3307 75.9008 90.2747 73.4373 89.5247 70.9344C89.1874 69.8088 87.9124 68.4103 86.7147 67.8527C85.6397 67.3521 83.871 67.2506 82.801 67.6283ZM11.3007 70.5096C10.6393 70.7771 9.85183 71.8555 9.85183 72.4933C9.85183 73.8246 10.8555 74.8125 12.2083 74.8125C12.8663 74.8125 13.1389 74.6894 13.68 74.1484C14.2096 73.6187 14.3426 73.3322 14.3372 72.7324C14.3214 71.0258 12.7921 69.9062 11.3007 70.5096ZM28.9725 70.7662C28.5579 71.0445 28.2065 71.5057 28.036 71.9945C27.7948 72.6869 27.8007 72.856 28.088 73.4617C29.1251 75.6469 32.3149 75.0625 32.3477 72.6814C32.3608 71.7385 32.0573 71.1783 31.2749 70.7012C30.4563 70.2021 29.7839 70.2211 28.9725 70.7662ZM47.1936 70.716C46.4178 71.1889 45.9426 72.2096 46.1094 73.0439C46.2889 73.9414 47.3819 74.8125 48.3284 74.8125C49.2749 74.8125 50.3678 73.9414 50.5473 73.0439C50.7964 71.7984 49.5928 70.3217 48.3284 70.3217C48.0598 70.3217 47.5491 70.4992 47.1936 70.716ZM65.3007 70.7666C64.0426 71.6123 63.962 73.2217 65.1247 74.2754C66.2014 75.2512 67.8997 74.8715 68.5456 73.5105C68.8569 72.8545 68.8647 72.6949 68.6208 71.9945C68.31 71.1033 67.3147 70.3203 66.4925 70.3203C66.202 70.3203 65.6657 70.5211 65.3007 70.7666ZM83.4383 70.6154C82.7612 70.9963 82.3128 71.8553 82.3128 72.7715C82.3128 73.3219 82.4641 73.6357 82.9768 74.1484C85.0143 76.1859 88.1155 73.3072 86.17 71.1844C85.4157 70.3611 84.3026 70.1293 83.4383 70.6154Z" fill="#1884C7"/>
</svg>
