<svg width="100" height="100" viewBox="0 0 100 100" fill="none" xmlns="http://www.w3.org/2000/svg">
<path fill-rule="evenodd" clip-rule="evenodd" d="M19.4991 8.74638L19.0867 9.15909V26.2371V43.315H14.1228H9.15875L8.74645 43.7279L8.33398 44.1406L8.33802 64.9606C8.3407 78.0854 8.40371 86.0472 8.50855 86.5022C8.97175 88.5123 10.2365 90.0816 12.1608 91.0335L13.4408 91.6668H43.2715H73.1021L74.2244 91.1345C75.7861 90.394 76.7592 89.4405 77.5149 87.9102L78.1424 86.6396L78.2014 83.8135L78.2604 80.9874H84.5514H90.8426L91.2548 80.5745L91.6673 80.1618V67.533V54.9041L91.2548 54.4914L90.8426 54.0785H84.5344H78.2265V31.6189V9.15909L77.814 8.74638L77.4017 8.3335H48.6566H19.9114L19.4991 8.74638ZM21.7347 48.8337L21.6908 86.6428L21.0905 87.8535L20.4901 89.0642L46.5442 89.02C71.5964 88.9776 72.6208 88.9638 73.1861 88.6624C74.0111 88.2227 74.6685 87.5755 75.0889 86.7896C75.4015 86.2048 75.4565 85.7812 75.5085 83.5521L75.5684 80.9874H74.6216C73.3012 80.9874 72.8501 80.5397 72.8501 79.229V78.2965H71H69.1498L66.4657 79.6419L63.7816 80.9874H55.232C45.6203 80.9874 45.7564 81.0028 44.5042 79.7738C43.2669 78.5597 43.2802 78.6774 43.2802 68.8784C43.2802 58.9405 43.2533 59.1626 44.6137 57.8887C45.0638 57.4674 45.7081 57.0538 46.0722 56.9526C46.4707 56.8419 48.6655 56.7709 51.7132 56.7704L56.7019 56.7694L56.7535 52.0183C56.8039 47.3688 56.8138 47.2494 57.2164 46.4307C57.7426 45.3602 58.7711 44.3327 59.8336 43.816C60.4936 43.4951 61.0112 43.3957 62.296 43.3432C63.8605 43.2793 63.9392 43.2933 64.3541 43.7087L64.7856 44.1406V48.1448V52.149L67.0979 54.4591L69.4103 56.7694H71.1302H72.8501V55.8369C72.8501 55.0708 72.9239 54.8303 73.2626 54.4914C73.6011 54.1524 73.8414 54.0785 74.6067 54.0785H75.5383V32.5515V11.0244H48.6584H21.7785L21.7347 48.8337ZM46.8671 14.7001C43.1752 17.3476 38.8209 18.8258 34.0469 19.0521C32.1604 19.1416 31.9158 19.1895 31.5687 19.537C31.2404 19.8656 31.1834 20.0969 31.1834 21.0989C31.1834 23.8777 32.0976 28.5131 33.1868 31.258C34.7429 35.1793 36.9961 38.6621 39.8294 41.5262C40.5297 42.2339 42.6902 44.1369 44.6307 45.755C47.4539 48.1093 48.258 48.6968 48.6566 48.6968C49.0553 48.6968 49.8641 48.1051 52.713 45.7296C54.6702 44.0975 56.7325 42.3002 57.2962 41.7353C60.2018 38.8234 62.5593 35.2067 64.127 31.2561C65.2157 28.5129 66.1297 23.8771 66.1297 21.0989C66.1297 20.0743 66.0766 19.8695 65.7172 19.5099C65.355 19.1472 65.1562 19.097 64.0791 19.0965C59.2098 19.0947 54.1959 17.4319 50.13 14.4704C49.5411 14.0414 48.9082 13.7159 48.665 13.7166C48.4126 13.7175 47.6737 14.1218 46.8671 14.7001ZM47.5645 17.5197C46.4161 18.3268 42.9796 19.9881 41.3656 20.5165C39.6342 21.0831 37.1786 21.5732 35.3434 21.718L33.875 21.8338L33.9519 22.4416C34.2953 25.1542 34.4565 26.0989 34.8058 27.4442C35.8372 31.4181 37.9751 35.4014 40.8091 38.63C41.8919 39.8636 48.3306 45.5013 48.6566 45.5013C48.9297 45.5013 55.3089 39.9838 56.2422 38.9405C59.2071 35.6256 61.4539 31.5027 62.5074 27.4442C62.8567 26.0989 63.0178 25.1542 63.3612 22.4416L63.4381 21.8338L61.9697 21.718C57.8457 21.3924 53.4462 19.9018 49.9534 17.6463C49.3268 17.2417 48.7219 16.9149 48.6093 16.9199C48.4966 16.925 48.0265 17.1949 47.5645 17.5197ZM47.0569 21.3052C44.6379 23.0853 41.6729 24.1996 38.7599 24.4238C37.5571 24.5163 37.2653 24.5982 36.9247 24.9391C36.5668 25.2973 36.5326 25.4413 36.6302 26.1773C36.7853 27.348 37.603 29.7723 38.335 31.2319C39.9353 34.4231 41.4005 36.1702 45.2439 39.4692C47.5831 41.4771 48.2552 41.9696 48.6566 41.9696C49.0579 41.9696 49.73 41.4771 52.0692 39.4692C55.8919 36.1878 57.3824 34.4157 58.9484 31.2901C59.6739 29.8422 60.5322 27.3147 60.6819 26.1858C60.7807 25.4403 60.7473 25.2983 60.3884 24.9391C60.0479 24.5982 59.756 24.5163 58.5532 24.4238C55.6403 24.1996 52.6752 23.0853 50.2562 21.3052C49.5709 20.8009 48.9062 20.4425 48.6566 20.4425C48.4069 20.4425 47.7422 20.8009 47.0569 21.3052ZM47.8165 24.0631C46.1881 25.2923 42.6818 26.7032 40.665 26.9405C40.1576 27.0002 39.7113 27.0994 39.6734 27.1611C39.5583 27.3473 40.6463 29.8962 41.415 31.2408C42.6477 33.3974 44.5973 35.485 47.9371 38.2245L48.6566 38.8147L49.376 38.2245C52.7159 35.485 54.6655 33.3974 55.8982 31.2408C56.6668 29.8962 57.7548 27.3473 57.6398 27.1611C57.6018 27.0994 57.1556 27.0002 56.6482 26.9405C54.6561 26.706 51.29 25.3485 49.4543 24.0392C49.0151 23.726 48.6371 23.4748 48.6142 23.481C48.5912 23.4872 48.2323 23.7491 47.8165 24.0631ZM11.0615 66.0614C11.1043 85.2595 11.1196 86.1421 11.4193 86.7055C12.2241 88.2181 13.4242 88.9635 15.0544 88.9635C16.6846 88.9635 17.8847 88.2181 18.6895 86.7055C18.9892 86.1421 19.0045 85.2595 19.0474 66.0614L19.092 46.0059H15.0544H11.0168L11.0615 66.0614ZM60.9516 46.2888C60.6446 46.4401 60.191 46.8296 59.9435 47.1544L59.4933 47.7449L59.4093 53.2605C59.3331 58.2622 59.2974 58.8042 59.0255 59.0762C58.7523 59.3496 58.191 59.3836 52.6888 59.4603C45.7296 59.5572 46.1226 59.4588 46.0013 61.1371L45.9281 62.1512H51.3246H56.7211V63.4966V64.8421H51.3447H45.9684V66.1875V67.533H51.3447H56.7211V68.8784V70.2238H51.3447H45.9684V71.5693V72.9147H51.3447H56.7211V74.2602V75.6056H51.3246H45.9281L46.0013 76.6197C46.1251 78.333 45.4351 78.2055 54.8716 78.259L63.091 78.3057L65.7844 76.9556L68.4778 75.6056H70.664H72.8501V67.533V59.4603H70.545H68.2399L65.1687 56.386L62.0974 53.3116V49.6588C62.0974 45.5883 62.1367 45.704 60.9516 46.2888ZM38.3965 47.6118L37.2962 48.7132L31.296 48.701L25.2957 48.6889L24.8793 49.1056L24.463 49.5224V55.424V61.3256L24.8755 61.7383L25.2878 62.1512H31.1834H37.0791L37.4914 61.7383L37.9039 61.3256V56.648V51.9702L39.668 50.2104C40.6382 49.2425 41.4321 48.3707 41.4321 48.2729C41.4321 48.0511 39.8835 46.5104 39.6606 46.5104C39.5705 46.5104 39.0017 47.006 38.3965 47.6118ZM27.1512 55.424V59.4603H31.1834H35.2157V57.0738V54.6873L33.476 56.4011C31.1952 58.6478 31.1811 58.6487 29.1456 56.6549C28.3259 55.852 27.6552 55.1112 27.6552 55.0087C27.6552 54.7852 29.1966 53.2376 29.4193 53.2376C29.5054 53.2376 29.9387 53.5955 30.3824 54.0328L31.1888 54.8279L32.9072 53.1078L34.6257 51.3876H30.8884H27.1512V55.424ZM75.5383 67.533V78.2965H82.2587H88.9791V67.533V56.7694H82.2587H75.5383V67.533ZM38.3965 63.7571L37.2962 64.8585L31.296 64.8463L25.2957 64.8342L24.8793 65.2509L24.463 65.6677V71.5693V77.4709L24.8755 77.8836L25.2878 78.2965H31.1834H37.0791L37.4914 77.8836L37.9039 77.4709V72.7933V68.1155L39.668 66.3557C40.6382 65.3878 41.4321 64.516 41.4321 64.4183C41.4321 64.1964 39.8835 62.6557 39.6606 62.6557C39.5705 62.6557 39.0017 63.1514 38.3965 63.7571ZM27.1512 71.5693V75.6056H31.1834H35.2157V73.2191V70.8327L33.476 72.5464C31.1952 74.7931 31.1811 74.794 29.1456 72.8002C28.3259 71.9973 27.6552 71.2565 27.6552 71.154C27.6552 70.9305 29.1966 69.3829 29.4193 69.3829C29.5054 69.3829 29.9387 69.7408 30.3824 70.1781L31.1888 70.9732L32.9072 69.2531L34.6257 67.533H30.8884H27.1512V71.5693Z" fill="#1884C7"/>
</svg>
